<svg width="544" height="440" viewBox="0 0 544 440" fill="none" xmlns="http://www.w3.org/2000/svg">
<rect x="1" y="1" width="123" height="32" rx="4" stroke="#00FFB3"/>
<path d="M35.62 11.376L35.932 11.952C34.588 12.444 33.076 12.732 31.396 12.816V15.144H36.388V15.756H34.552V22.152H33.916V15.756H31.396V15.972C31.324 18.516 30.808 20.556 29.824 22.068L29.368 21.6C30.232 20.244 30.7 18.372 30.772 15.972V12.252C32.548 12.216 34.168 11.928 35.62 11.376ZM29.596 13.164L29.956 13.62C29.5 14.196 28.912 14.772 28.168 15.324V15.552C28.156 16.38 28.096 17.148 28 17.844C28.516 18.492 29.044 19.224 29.584 20.064L29.188 20.64C28.684 19.728 28.24 19.02 27.88 18.492C27.556 20.052 26.968 21.288 26.104 22.176L25.624 21.744C26.896 20.46 27.532 18.396 27.556 15.552V11.328H28.168V14.676C28.732 14.196 29.212 13.692 29.596 13.164ZM26.068 13.296C26.356 14.28 26.608 15.396 26.836 16.668L26.32 16.8C26.116 15.636 25.864 14.52 25.552 13.464L26.068 13.296ZM42.756 11.232H43.404V11.712H47.784V12.204H43.404V12.948H48.12V14.964H47.508V13.476H39.492V15.036H38.88V12.948H42.756V11.232ZM40.26 14.232H46.752V14.724H40.26V14.232ZM45.744 17.544C44.844 17.064 44.112 16.548 43.536 15.984C42.864 16.572 42.12 17.088 41.304 17.544H45.744ZM40.464 17.964C39.804 18.276 39.108 18.54 38.388 18.78L38.052 18.264C40.332 17.544 42.084 16.608 43.308 15.456H43.752C44.748 16.488 46.452 17.4 48.852 18.192L48.516 18.708C47.868 18.492 47.268 18.252 46.716 18.012V22.176H46.092V21.66H41.076V22.212H40.464V17.964ZM41.076 21.168H46.092V20.448H41.076V21.168ZM41.076 19.968H46.092V19.272H41.076V19.968ZM41.076 18.804H46.092V18.048H41.076V18.804ZM45.252 15.024C46.356 15.42 47.364 15.9 48.276 16.452L47.94 16.956C46.98 16.32 45.984 15.816 44.964 15.456L45.252 15.024ZM41.676 15.06L42.156 15.36C41.736 15.696 41.304 15.972 40.872 16.188C40.392 16.428 39.792 16.668 39.06 16.884L38.748 16.38C39.396 16.224 39.96 16.032 40.464 15.804C40.908 15.588 41.316 15.348 41.676 15.06ZM52.796 14.184C52.316 15.288 51.716 16.224 50.972 16.968L50.54 16.44C51.704 15.24 52.496 13.596 52.904 11.532L53.564 11.664C53.42 12.336 53.24 12.972 53.036 13.56H55.892V11.316H56.528V13.56H60.572V14.184H56.528V17.196H60.332V17.832H56.528V21.108H61.34V21.756H50.828V21.108H55.892V17.832H52.28V17.196H55.892V14.184H52.796ZM66.184 20.304H71.152V20.736H66.184V20.304ZM69.364 18.684H67.744C67.696 19.092 67.504 19.428 67.18 19.692C66.82 19.956 66.232 20.16 65.416 20.316L65.14 19.884C65.896 19.764 66.436 19.608 66.76 19.392C67.012 19.2 67.156 18.96 67.192 18.684H64.768V21.336H72.244V19.812H70.024C69.58 19.812 69.364 19.608 69.364 19.224V18.684ZM72.244 21.792H64.768V22.188H64.156V18.24H67.12V17.52H63.388V16.992H73.612V17.52H69.976V18.24H72.868V22.188H72.244V21.792ZM69.364 17.52H67.744V18.24H69.364V17.52ZM72.244 19.392V18.684H69.928V19.152C69.928 19.308 70 19.392 70.144 19.392H72.244ZM69.316 14.496C70.036 14.712 70.708 14.928 71.332 15.168C71.764 14.892 72.148 14.568 72.46 14.208H68.932V13.716H73.144V14.136C72.796 14.616 72.376 15.036 71.896 15.384C72.568 15.648 73.18 15.912 73.732 16.2L73.384 16.608C72.796 16.284 72.136 15.984 71.416 15.696C70.732 16.08 69.94 16.356 69.028 16.524L68.788 16.068C69.556 15.936 70.228 15.732 70.816 15.456C70.252 15.24 69.652 15.036 69.028 14.844L69.316 14.496ZM63.34 11.508H68.584V12.012H64.36V15.576C64.36 15.816 64.48 15.948 64.744 15.948H68.452V16.428H64.576C64.048 16.428 63.784 16.164 63.784 15.648V12.012H63.34V11.508ZM65.752 13.092C65.572 13.344 65.38 13.56 65.176 13.728L64.816 13.416C65.212 13.08 65.512 12.636 65.728 12.072L66.172 12.252C66.112 12.396 66.052 12.54 65.992 12.672H68.2V13.092H67.108C67.108 13.428 67.096 13.668 67.096 13.824H68.56V14.244H67.024C67 14.328 66.964 14.412 66.94 14.496C67.492 14.736 68.008 15.024 68.464 15.336L68.2 15.744C67.72 15.36 67.24 15.06 66.76 14.832C66.448 15.276 65.944 15.588 65.236 15.78L64.972 15.348C65.848 15.156 66.364 14.796 66.52 14.244H64.888V13.824H66.58C66.58 13.632 66.592 13.392 66.592 13.092H65.752ZM69.664 11.52H72.424V12.552C72.424 12.672 72.508 12.732 72.7 12.732H73.744V13.248H72.58C72.1 13.248 71.86 13.044 71.86 12.636V12.012H70.18C70.156 12.312 70.06 12.576 69.916 12.804C69.712 13.068 69.412 13.308 69.028 13.536L68.644 13.164C68.956 12.972 69.208 12.768 69.388 12.552C69.568 12.336 69.664 11.988 69.664 11.52ZM84.912 14.916V22.188H84.264V21.66H77.736V22.188H77.088V14.916H80.364C80.484 14.46 80.568 13.992 80.616 13.512H75.72V12.888H78.888C78.708 12.372 78.492 11.88 78.228 11.424L78.864 11.184C79.116 11.664 79.344 12.228 79.56 12.888H82.368C82.656 12.348 82.908 11.772 83.124 11.16L83.772 11.388C83.556 11.952 83.328 12.456 83.064 12.888H86.28V13.512H81.312C81.24 14.004 81.132 14.472 81.012 14.916H84.912ZM77.736 21.06H84.264V19.572H77.736V21.06ZM77.736 18.996H84.264V17.544H77.736V18.996ZM77.736 16.968H84.264V15.516H77.736V16.968ZM89.684 13.62H92.804C92.936 13.212 93.032 12.78 93.092 12.348H88.376V11.748H98.624V12.348H93.74C93.668 12.792 93.584 13.212 93.464 13.62H97.496V20.004H89.684V13.62ZM96.872 19.392V17.988H90.332V19.392H96.872ZM90.332 17.412H96.872V16.092H90.332V17.412ZM90.332 15.516H96.872V14.22H90.332V15.516ZM94.928 20.292C96.368 20.652 97.676 21.096 98.852 21.624L98.492 22.152C97.244 21.552 95.948 21.084 94.628 20.748L94.928 20.292ZM92.012 20.292L92.348 20.736C91.436 21.336 90.128 21.816 88.412 22.176L88.1 21.636C89.816 21.288 91.124 20.844 92.012 20.292Z" fill="#00FFB3"/>
<rect x="199" y="39" width="100" height="32" rx="4" fill="#00FFB3"/>
<path d="M226.748 49.796H233.228V53.528H226.748V49.796ZM232.568 52.904V50.42H227.408V52.904H232.568ZM229.232 54.944V59.984H228.596V59.348H225.824V59.984H225.188V54.944H229.232ZM225.824 58.736H228.596V55.556H225.824V58.736ZM234.812 54.944V59.984H234.164V59.348H231.272V59.984H230.636V54.944H234.812ZM231.272 58.736H234.164V55.556H231.272V58.736ZM238.48 55.784C238.396 57.704 238.06 59.144 237.484 60.08L237.028 59.684C237.592 58.7 237.88 57.14 237.892 55.004V49.592H238.504V52.652H240.04V49.376H240.652V53.24H238.504V55.172H240.748V60.032H240.112V55.784H238.48ZM241.96 50.348H243.832C244.012 49.964 244.144 49.58 244.24 49.184L244.876 49.268C244.78 49.652 244.66 50.012 244.492 50.348H247.3V55.256H244.516C244.468 55.376 244.408 55.484 244.348 55.592C243.976 56.216 243.364 56.696 242.512 57.056L242.212 56.588C242.968 56.264 243.52 55.82 243.856 55.256H241.96V50.348ZM246.7 54.692V53.084H244.936C244.912 53.708 244.84 54.236 244.708 54.692H246.7ZM244.096 54.692C244.24 54.224 244.312 53.684 244.336 53.084H242.56V54.692H244.096ZM242.56 52.508H244.348V50.924H242.56V52.508ZM244.948 50.924V52.508H246.7V50.924H244.948ZM241.396 57.14H245.152V55.784H245.776V57.14H247.936V57.752H245.776V60.128H245.152V57.752H241.396V57.14ZM256.68 53.264H257.328V60.08H256.68V53.264ZM252.624 53.3H253.272V55.448C253.236 57.608 252.516 59.18 251.112 60.188L250.62 59.744C251.928 58.856 252.6 57.416 252.624 55.448V53.3ZM254.772 49.268H255.228C256.716 51.08 258.444 52.508 260.388 53.552L260.064 54.116C258.084 53.036 256.392 51.632 255 49.88C253.728 51.56 252.036 53 249.948 54.224L249.636 53.648C251.7 52.472 253.404 51.008 254.772 49.268ZM262.676 57.116L263.228 57.188C263.156 58.244 262.964 59.18 262.664 59.996L262.076 59.816C262.4 59.036 262.604 58.136 262.676 57.116ZM264.464 57.032C264.632 57.68 264.752 58.568 264.824 59.696L264.236 59.768C264.188 58.616 264.08 57.716 263.936 57.092L264.464 57.032ZM265.82 56.696C266.132 57.416 266.384 58.184 266.6 58.976L266.072 59.204C265.856 58.328 265.616 57.56 265.352 56.888L265.82 56.696ZM265.532 53.828C265.916 54.572 266.252 55.364 266.516 56.204L266 56.432C265.916 56.168 265.832 55.928 265.748 55.688C264.584 56.024 263.456 56.252 262.376 56.372L262.208 55.796C262.316 55.748 262.412 55.7 262.496 55.628C263.012 55.112 263.624 54.26 264.344 53.084C263.636 53.228 262.94 53.348 262.256 53.444L262.1 52.856C262.196 52.808 262.292 52.724 262.376 52.604C263.024 51.644 263.588 50.528 264.068 49.244L264.668 49.484C264.068 50.876 263.468 51.98 262.868 52.784C263.48 52.7 264.092 52.592 264.704 52.472C264.944 52.028 265.208 51.56 265.472 51.08L266.036 51.296C264.86 53.42 263.888 54.896 263.12 55.724C263.948 55.592 264.764 55.412 265.568 55.196C265.4 54.764 265.22 54.38 265.052 54.02L265.532 53.828ZM272.3 55.256V60.164H271.676V59.54H267.764V60.164H267.128V55.256H272.3ZM267.764 58.916H271.676V55.868H267.764V58.916ZM268.724 50.408H266.588V49.808H272.48C272.468 52.004 272.36 53.324 272.144 53.768C271.928 54.2 271.556 54.416 271.028 54.416C270.716 54.416 270.356 54.404 269.924 54.38L269.756 53.78C270.2 53.804 270.572 53.816 270.872 53.828C271.28 53.804 271.544 53.612 271.652 53.252C271.748 52.892 271.82 51.944 271.844 50.408H269.348C269.156 51.428 268.892 52.244 268.532 52.844C268.124 53.516 267.512 54.104 266.696 54.632L266.312 54.152C267.044 53.672 267.596 53.156 267.968 52.58C268.304 52.028 268.556 51.296 268.724 50.408Z" fill="#1A1A1A"/>
<rect x="199" y="103" width="100" height="32" rx="4" fill="#00FFB3"/>
<path d="M231.776 114.84H229.76V118.368H231.776V114.84ZM231.776 118.98H229.76V122.676H231.776V118.98ZM232.376 122.676H234.416V118.98H232.376V122.676ZM232.376 118.368H234.416V114.84H232.376V118.368ZM234.416 123.276H229.76V124.128H229.16V114.24H235.016V124.128H234.416V123.276ZM225.128 121.116L225.68 121.188C225.608 122.256 225.428 123.204 225.164 124.032L224.576 123.852C224.876 123.06 225.056 122.148 225.128 121.116ZM226.82 121.032C226.976 121.68 227.084 122.556 227.144 123.66L226.568 123.732C226.532 122.592 226.436 121.716 226.292 121.092L226.82 121.032ZM227.984 120.696C228.248 121.344 228.464 122.04 228.656 122.76L228.14 122.976C227.948 122.184 227.732 121.488 227.504 120.888L227.984 120.696ZM227.744 117.864C228.128 118.608 228.464 119.4 228.74 120.24L228.212 120.456C228.128 120.192 228.044 119.94 227.96 119.7C226.916 120.036 225.908 120.264 224.924 120.384L224.756 119.82C224.876 119.772 224.972 119.712 225.044 119.64C225.524 119.124 226.1 118.26 226.772 117.06C226.076 117.192 225.404 117.3 224.744 117.396L224.6 116.832C224.696 116.784 224.78 116.712 224.852 116.604C225.452 115.644 225.98 114.516 226.436 113.22L227.036 113.46C226.46 114.876 225.896 115.98 225.332 116.784C225.92 116.7 226.508 116.592 227.096 116.46C227.324 116.016 227.564 115.548 227.804 115.056L228.368 115.284C227.24 117.456 226.328 118.944 225.62 119.76C226.34 119.628 227.06 119.448 227.78 119.22C227.6 118.788 227.42 118.404 227.252 118.056L227.744 117.864ZM238.468 117.108V119.424C238.468 119.544 238.456 119.652 238.456 119.772C239.128 119.652 239.728 119.508 240.28 119.34V117.648C239.692 117.42 239.092 117.24 238.468 117.108ZM240.28 117.06V114.36H238.468V116.544C239.104 116.676 239.704 116.844 240.28 117.06ZM238.432 120.384C238.348 121.908 238.072 123.168 237.604 124.176L237.112 123.732C237.592 122.616 237.844 121.188 237.856 119.46V113.748H240.904V123.06C240.904 123.744 240.604 124.092 240.028 124.092H239.008L238.852 123.492C239.2 123.504 239.524 123.516 239.824 123.516C240.124 123.516 240.28 123.288 240.28 122.844V119.94C239.704 120.108 239.08 120.264 238.432 120.384ZM242.908 113.184L243.532 113.256C243.412 113.76 243.268 114.252 243.088 114.708H247.3C247.276 117.66 247.228 119.388 247.156 119.904C247.084 120.408 246.952 120.756 246.76 120.936C246.556 121.104 246.148 121.2 245.536 121.2H245.2L244.996 120.588C245.248 120.588 245.488 120.6 245.728 120.6C246.052 120.6 246.268 120.504 246.388 120.336C246.484 120.168 246.544 119.856 246.58 119.412C246.604 118.956 246.628 117.588 246.652 115.308H242.824C242.428 116.148 241.924 116.892 241.312 117.54L240.94 117.048C241.912 115.992 242.572 114.708 242.908 113.184ZM245.248 117.024V120.204H242.632V122.676C242.632 123.108 242.836 123.336 243.256 123.348H246.268C246.64 123.336 246.904 123.204 247.06 122.94C247.18 122.712 247.264 122.208 247.336 121.416L247.912 121.596C247.84 122.34 247.744 122.88 247.624 123.204C247.408 123.672 247.012 123.912 246.424 123.936H243.052C242.356 123.936 242.02 123.576 242.02 122.856V117.024H245.248ZM242.632 119.616H244.636V117.612H242.632V119.616ZM252.684 122.304H257.652V122.736H252.684V122.304ZM255.864 120.684H254.244C254.196 121.092 254.004 121.428 253.68 121.692C253.32 121.956 252.732 122.16 251.916 122.316L251.64 121.884C252.396 121.764 252.936 121.608 253.26 121.392C253.512 121.2 253.656 120.96 253.692 120.684H251.268V123.336H258.744V121.812H256.524C256.08 121.812 255.864 121.608 255.864 121.224V120.684ZM258.744 123.792H251.268V124.188H250.656V120.24H253.62V119.52H249.888V118.992H260.112V119.52H256.476V120.24H259.368V124.188H258.744V123.792ZM255.864 119.52H254.244V120.24H255.864V119.52ZM258.744 121.392V120.684H256.428V121.152C256.428 121.308 256.5 121.392 256.644 121.392H258.744ZM255.816 116.496C256.536 116.712 257.208 116.928 257.832 117.168C258.264 116.892 258.648 116.568 258.96 116.208H255.432V115.716H259.644V116.136C259.296 116.616 258.876 117.036 258.396 117.384C259.068 117.648 259.68 117.912 260.232 118.2L259.884 118.608C259.296 118.284 258.636 117.984 257.916 117.696C257.232 118.08 256.44 118.356 255.528 118.524L255.288 118.068C256.056 117.936 256.728 117.732 257.316 117.456C256.752 117.24 256.152 117.036 255.528 116.844L255.816 116.496ZM249.84 113.508H255.084V114.012H250.86V117.576C250.86 117.816 250.98 117.948 251.244 117.948H254.952V118.428H251.076C250.548 118.428 250.284 118.164 250.284 117.648V114.012H249.84V113.508ZM252.252 115.092C252.072 115.344 251.88 115.56 251.676 115.728L251.316 115.416C251.712 115.08 252.012 114.636 252.228 114.072L252.672 114.252C252.612 114.396 252.552 114.54 252.492 114.672H254.7V115.092H253.608C253.608 115.428 253.596 115.668 253.596 115.824H255.06V116.244H253.524C253.5 116.328 253.464 116.412 253.44 116.496C253.992 116.736 254.508 117.024 254.964 117.336L254.7 117.744C254.22 117.36 253.74 117.06 253.26 116.832C252.948 117.276 252.444 117.588 251.736 117.78L251.472 117.348C252.348 117.156 252.864 116.796 253.02 116.244H251.388V115.824H253.08C253.08 115.632 253.092 115.392 253.092 115.092H252.252ZM256.164 113.52H258.924V114.552C258.924 114.672 259.008 114.732 259.2 114.732H260.244V115.248H259.08C258.6 115.248 258.36 115.044 258.36 114.636V114.012H256.68C256.656 114.312 256.56 114.576 256.416 114.804C256.212 115.068 255.912 115.308 255.528 115.536L255.144 115.164C255.456 114.972 255.708 114.768 255.888 114.552C256.068 114.336 256.164 113.988 256.164 113.52ZM264.104 119.46H270.668V119.988C269.852 120.348 268.94 120.696 267.92 121.044V121.548H272.732V122.1H267.92V123.312C267.92 123.84 267.632 124.116 267.068 124.116H265.724L265.568 123.564C265.964 123.576 266.396 123.588 266.864 123.588C267.164 123.588 267.32 123.432 267.32 123.12V122.1H262.28V121.548H267.32V120.756C268.328 120.444 269.084 120.18 269.6 119.988H264.104V119.46ZM263.828 115.752L263.9 116.64H265.76V117.132H263.936L264.02 118.068H271.016L271.076 117.132H269.264V116.64H271.112L271.172 115.752H269.312V115.272H271.208L271.268 114.276H269.24V113.736H271.892L271.616 118.068H272.504V119.904H271.88V118.584H263.12V119.892H262.496V118.068H263.42L263.096 113.916C264.056 113.772 264.872 113.58 265.532 113.34L265.748 113.856C265.34 114.012 264.656 114.18 263.708 114.36L263.792 115.272H265.736V115.752H263.828ZM266.468 113.556C266.864 113.772 267.236 114 267.584 114.228C267.872 113.988 268.124 113.724 268.364 113.436L268.772 113.676C268.496 114 268.232 114.276 267.992 114.504C268.304 114.72 268.592 114.936 268.856 115.152L268.52 115.5C268.256 115.26 267.944 115.032 267.608 114.792C267.236 115.056 266.792 115.308 266.276 115.548L266 115.14C266.456 114.972 266.852 114.756 267.2 114.516C266.864 114.3 266.516 114.084 266.144 113.868L266.468 113.556ZM266.588 115.764C266.972 115.98 267.32 116.184 267.656 116.4C267.944 116.148 268.208 115.872 268.448 115.584L268.844 115.836C268.58 116.16 268.316 116.436 268.064 116.676C268.412 116.916 268.724 117.144 269.012 117.384L268.664 117.72C268.376 117.48 268.052 117.228 267.68 116.976C267.32 117.24 266.876 117.492 266.36 117.732L266.096 117.312C266.528 117.144 266.924 116.94 267.26 116.7C266.948 116.484 266.612 116.28 266.252 116.088L266.588 115.764Z" fill="#1A1A1A"/>
<rect x="198" y="167" width="100" height="32" rx="4" fill="#00FFB3"/>
<path d="M212.696 180.568H216.62C217.196 180.1 217.76 179.56 218.3 178.936H214.388C213.584 179.848 212.636 180.64 211.556 181.336L211.148 180.832C212.732 179.86 213.992 178.636 214.916 177.172L215.576 177.316C215.36 177.676 215.12 178.012 214.88 178.336H219.128V178.84C218.564 179.536 218.012 180.112 217.46 180.568H220.58V184.036H217.82V186.7C217.82 187.108 218.012 187.324 218.396 187.324H220.4C220.664 187.324 220.844 187.24 220.94 187.096C221.072 186.904 221.168 186.328 221.216 185.368L221.828 185.56C221.756 186.688 221.612 187.384 221.396 187.648C221.216 187.852 220.928 187.96 220.532 187.96H218.204C217.508 187.96 217.172 187.576 217.172 186.832V184.036H216.38C216.296 184.276 216.2 184.516 216.104 184.744C215.42 186.136 213.92 187.276 211.592 188.152L211.184 187.648C213.284 186.88 214.688 185.884 215.396 184.684C215.504 184.468 215.6 184.252 215.684 184.036H212.696V180.568ZM219.944 183.412V181.18H216.836C216.812 181.996 216.728 182.74 216.56 183.412H219.944ZM215.888 183.412C216.056 182.74 216.164 181.996 216.188 181.18H213.344V183.412H215.888ZM227.224 183.628H233.212V184.168C232.768 185.056 232.072 185.824 231.112 186.472C232.048 186.976 233.188 187.384 234.544 187.708L234.184 188.248C232.708 187.864 231.496 187.396 230.536 186.82C229.504 187.396 228.244 187.852 226.756 188.212L226.432 187.648C227.836 187.336 229.012 186.94 229.972 186.46C229.06 185.812 228.412 185.056 228.04 184.192H227.224V183.628ZM228.64 184.192C229.036 184.936 229.672 185.584 230.536 186.136C231.424 185.584 232.096 184.936 232.54 184.192H228.64ZM225.652 182.368C225.652 182.26 225.664 182.152 225.664 182.056V178.24H229.672C229.516 177.856 229.348 177.496 229.156 177.184L229.816 177.076C229.984 177.412 230.152 177.808 230.32 178.24H234.112V178.864H226.312V182.056C226.252 184.6 225.628 186.628 224.428 188.164L223.936 187.72C224.872 186.556 225.436 185.02 225.604 183.1C225.052 183.58 224.428 184.036 223.744 184.468L223.576 183.832C224.332 183.412 225.028 182.92 225.652 182.368ZM224.176 179.092C224.572 179.812 224.908 180.568 225.196 181.36L224.644 181.6C224.332 180.736 223.996 179.968 223.624 179.32L224.176 179.092ZM228.556 179.872H232.312V181.72C232.312 182.032 232.48 182.2 232.816 182.2H234.1V182.776H232.684C232.012 182.776 231.688 182.452 231.688 181.816V180.448H229.18V180.784C229.18 181.792 228.616 182.584 227.488 183.136L227.068 182.668C228.052 182.236 228.556 181.624 228.556 180.844V179.872ZM243.276 178.84H241.26V182.368H243.276V178.84ZM243.276 182.98H241.26V186.676H243.276V182.98ZM243.876 186.676H245.916V182.98H243.876V186.676ZM243.876 182.368H245.916V178.84H243.876V182.368ZM245.916 187.276H241.26V188.128H240.66V178.24H246.516V188.128H245.916V187.276ZM236.628 185.116L237.18 185.188C237.108 186.256 236.928 187.204 236.664 188.032L236.076 187.852C236.376 187.06 236.556 186.148 236.628 185.116ZM238.32 185.032C238.476 185.68 238.584 186.556 238.644 187.66L238.068 187.732C238.032 186.592 237.936 185.716 237.792 185.092L238.32 185.032ZM239.484 184.696C239.748 185.344 239.964 186.04 240.156 186.76L239.64 186.976C239.448 186.184 239.232 185.488 239.004 184.888L239.484 184.696ZM239.244 181.864C239.628 182.608 239.964 183.4 240.24 184.24L239.712 184.456C239.628 184.192 239.544 183.94 239.46 183.7C238.416 184.036 237.408 184.264 236.424 184.384L236.256 183.82C236.376 183.772 236.472 183.712 236.544 183.64C237.024 183.124 237.6 182.26 238.272 181.06C237.576 181.192 236.904 181.3 236.244 181.396L236.1 180.832C236.196 180.784 236.28 180.712 236.352 180.604C236.952 179.644 237.48 178.516 237.936 177.22L238.536 177.46C237.96 178.876 237.396 179.98 236.832 180.784C237.42 180.7 238.008 180.592 238.596 180.46C238.824 180.016 239.064 179.548 239.304 179.056L239.868 179.284C238.74 181.456 237.828 182.944 237.12 183.76C237.84 183.628 238.56 183.448 239.28 183.22C239.1 182.788 238.92 182.404 238.752 182.056L239.244 181.864ZM249.968 181.108V183.424C249.968 183.544 249.956 183.652 249.956 183.772C250.628 183.652 251.228 183.508 251.78 183.34V181.648C251.192 181.42 250.592 181.24 249.968 181.108ZM251.78 181.06V178.36H249.968V180.544C250.604 180.676 251.204 180.844 251.78 181.06ZM249.932 184.384C249.848 185.908 249.572 187.168 249.104 188.176L248.612 187.732C249.092 186.616 249.344 185.188 249.356 183.46V177.748H252.404V187.06C252.404 187.744 252.104 188.092 251.528 188.092H250.508L250.352 187.492C250.7 187.504 251.024 187.516 251.324 187.516C251.624 187.516 251.78 187.288 251.78 186.844V183.94C251.204 184.108 250.58 184.264 249.932 184.384ZM254.408 177.184L255.032 177.256C254.912 177.76 254.768 178.252 254.588 178.708H258.8C258.776 181.66 258.728 183.388 258.656 183.904C258.584 184.408 258.452 184.756 258.26 184.936C258.056 185.104 257.648 185.2 257.036 185.2H256.7L256.496 184.588C256.748 184.588 256.988 184.6 257.228 184.6C257.552 184.6 257.768 184.504 257.888 184.336C257.984 184.168 258.044 183.856 258.08 183.412C258.104 182.956 258.128 181.588 258.152 179.308H254.324C253.928 180.148 253.424 180.892 252.812 181.54L252.44 181.048C253.412 179.992 254.072 178.708 254.408 177.184ZM256.748 181.024V184.204H254.132V186.676C254.132 187.108 254.336 187.336 254.756 187.348H257.768C258.14 187.336 258.404 187.204 258.56 186.94C258.68 186.712 258.764 186.208 258.836 185.416L259.412 185.596C259.34 186.34 259.244 186.88 259.124 187.204C258.908 187.672 258.512 187.912 257.924 187.936H254.552C253.856 187.936 253.52 187.576 253.52 186.856V181.024H256.748ZM254.132 183.616H256.136V181.612H254.132V183.616ZM264.196 178.288H267.568V177.268H268.216V178.288H271.612V178.912H268.216V180.1H271.096V184.18H268.9C269.5 185.272 270.532 186.244 271.996 187.108L271.576 187.624C270.04 186.592 268.972 185.452 268.36 184.18H268.216V188.188H267.568V184.18H267.472C266.788 185.572 265.648 186.724 264.052 187.612L263.704 187.06C265.192 186.304 266.272 185.344 266.92 184.18H264.7V180.1H267.568V178.912H264.196V178.288ZM270.484 183.616V182.404H268.204V183.616H270.484ZM267.592 183.616V182.404H265.324V183.616H267.592ZM265.324 181.852H267.592V180.664H265.324V181.852ZM268.204 180.664V181.852H270.484V180.664H268.204ZM261.676 177.688C262.516 178.708 263.152 179.596 263.596 180.364L263.08 180.724C262.612 179.908 261.964 179.008 261.148 178.012L261.676 177.688ZM263.236 182.62L263.824 182.86C263.2 184.624 262.492 186.292 261.712 187.852L261.112 187.588C261.928 185.968 262.636 184.312 263.236 182.62ZM273.912 178.54H277.272C277.44 178.096 277.596 177.652 277.716 177.196L278.376 177.268C278.256 177.712 278.112 178.132 277.968 178.54H284.208V179.176H277.716C277.284 180.208 276.732 181.156 276.084 182.032V188.2H275.436V182.836C274.968 183.376 274.464 183.892 273.912 184.372L273.516 183.844C275.052 182.5 276.216 180.952 277.008 179.176H273.912V178.54ZM277.104 184.072H280.668V182.86C281.388 182.452 282.084 181.972 282.732 181.408H278.04V180.796H283.572V181.408C282.912 182.02 282.156 182.596 281.316 183.136V184.072H284.4V184.708H281.316V187.204C281.316 187.828 280.992 188.14 280.368 188.14H278.868L278.7 187.528C279.132 187.54 279.612 187.552 280.116 187.552C280.476 187.552 280.668 187.36 280.668 187V184.708H277.104V184.072Z" fill="#1A1A1A"/>
<rect x="199" y="231" width="100" height="32" rx="4" fill="#00FFB3"/>
<path d="M224.732 245.936H235.292V246.512H229.82V252.2H229.172V251.024C228.068 251.24 226.628 251.408 224.852 251.528L224.768 250.952L225.908 250.88V246.512H224.732V245.936ZM226.532 250.832C227.528 250.736 228.404 250.628 229.172 250.484V249.596H226.532V250.832ZM226.532 249.092H229.172V248.048H226.532V249.092ZM226.532 247.544H229.172V246.512H226.532V247.544ZM230.912 248H230.552V247.424H234.548V247.964C234.284 248.924 233.828 249.74 233.192 250.424C233.768 250.892 234.476 251.3 235.316 251.66L234.98 252.188C234.092 251.78 233.36 251.336 232.772 250.832C232.16 251.36 231.428 251.804 230.564 252.164L230.228 251.66C231.068 251.312 231.764 250.892 232.328 250.412C231.632 249.692 231.152 248.888 230.912 248ZM232.736 250.016C233.288 249.428 233.696 248.756 233.948 248H231.5C231.728 248.756 232.136 249.428 232.736 250.016ZM233.72 241.712V245.204H233.072V242.228H226.976V245.24H226.34V241.712H233.72ZM227.516 243.164H232.532V243.632H227.516V243.164ZM227.492 244.46H232.556V244.94H227.492V244.46ZM239.608 245.66H237.148V245.048H238.612C238.444 244.52 238.24 244.04 238 243.584L238.576 243.356C238.804 243.836 239.008 244.4 239.2 245.048H240.628C240.844 244.52 241.036 243.956 241.204 243.356L241.804 243.56C241.624 244.124 241.432 244.616 241.216 245.048H242.692V245.66H240.256V247.16H242.476V247.772H240.256V252.188H239.608V247.772H237.34V247.16H239.608V245.66ZM247.324 241.376L247.636 241.952C246.556 242.384 245.368 242.648 244.048 242.72V245.108H247.996V245.72H246.664V252.188H246.028V245.72H244.048V247.172C243.988 249.248 243.532 250.904 242.692 252.14L242.224 251.648C242.968 250.568 243.364 249.08 243.412 247.172V242.18C244.852 242.144 246.148 241.88 247.324 241.376ZM237.256 242.324H239.668C239.5 241.928 239.332 241.568 239.14 241.256L239.8 241.136C239.968 241.484 240.136 241.88 240.304 242.324H242.608V242.948H237.256V242.324ZM238.276 248.54L238.876 248.66C238.564 249.884 238.12 250.94 237.556 251.84L237.016 251.492C237.592 250.628 238.012 249.644 238.276 248.54ZM241.468 248.48C241.804 249.248 242.056 249.956 242.248 250.592L241.684 250.808C241.48 250.064 241.228 249.332 240.916 248.636L241.468 248.48ZM251.904 247.436L252.468 247.664C251.868 249.224 251.208 250.676 250.476 252.032L249.864 251.768C250.656 250.352 251.328 248.912 251.904 247.436ZM250.56 241.436C251.388 242.048 252.084 242.66 252.636 243.26L252.168 243.728C251.664 243.152 250.968 242.54 250.092 241.892L250.56 241.436ZM250.188 244.256C250.98 244.868 251.64 245.48 252.18 246.092L251.712 246.56C251.232 245.972 250.56 245.348 249.72 244.7L250.188 244.256ZM256.356 241.232H256.968V244.496H259.728V251.216C259.728 251.804 259.38 252.104 258.708 252.104H257.256L257.076 251.492C257.592 251.504 258.072 251.516 258.516 251.516C258.9 251.516 259.092 251.336 259.092 250.988V248.96C257.676 249.236 256.164 249.464 254.544 249.644L254.388 249.044C256.032 248.876 257.604 248.66 259.092 248.372V245.108H254.304V246.5C255.18 246.584 255.9 246.668 256.452 246.74C256.872 246.8 257.436 246.896 258.132 247.04L257.904 247.556C257.28 247.436 256.68 247.328 256.092 247.244C255.504 247.148 254.904 247.088 254.304 247.04V247.664C254.28 249.536 253.896 251.048 253.152 252.2L252.648 251.744C253.32 250.688 253.656 249.344 253.68 247.712V244.496H256.356V241.232ZM253.656 241.592C254.136 242.228 254.58 242.924 254.988 243.68L254.472 243.932C254.04 243.164 253.584 242.468 253.104 241.856L253.656 241.592ZM259.668 241.508L260.208 241.748C259.824 242.516 259.32 243.248 258.72 243.968L258.204 243.704C258.828 242.96 259.308 242.228 259.668 241.508ZM263.852 242.18H266.48C266.66 241.856 266.792 241.52 266.888 241.172L267.56 241.268C267.464 241.592 267.344 241.892 267.176 242.18H271.244V247.892H263.852V242.18ZM270.608 247.316V246.128H264.488V247.316H270.608ZM264.488 245.588H270.608V244.46H264.488V245.588ZM264.488 243.908H270.608V242.744H264.488V243.908ZM263.288 248.792L263.912 248.912C263.612 250.016 263.204 250.964 262.676 251.768L262.136 251.408C262.664 250.64 263.048 249.764 263.288 248.792ZM268.928 251.984H265.82C265.208 251.984 264.908 251.684 264.908 251.084V248.72H265.568V250.94C265.568 251.252 265.712 251.408 266 251.408H268.808C269.108 251.408 269.324 251.336 269.444 251.204C269.612 251.024 269.72 250.508 269.768 249.668L270.392 249.872C270.32 250.856 270.152 251.468 269.912 251.708C269.708 251.888 269.384 251.984 268.928 251.984ZM267.224 248.312C267.908 248.96 268.436 249.524 268.808 250.004L268.316 250.352C267.932 249.824 267.404 249.248 266.744 248.612L267.224 248.312ZM271.112 248.588C271.928 249.584 272.552 250.448 272.984 251.192L272.468 251.552C272.012 250.76 271.4 249.872 270.608 248.912L271.112 248.588Z" fill="#1A1A1A"/>
<rect x="443" y="231" width="100" height="32" rx="4" fill="#00FFB3"/>
<rect x="443" y="231" width="100" height="32" rx="4" stroke="#1A1A1A" stroke-linecap="round"/>
<path d="M462.828 243.332H467.892C467.568 242.636 467.16 242 466.656 241.4L467.304 241.16C467.772 241.76 468.204 242.492 468.588 243.332H473.172V243.98H471.264C470.688 245.948 469.788 247.58 468.564 248.876C469.872 250.004 471.504 250.94 473.46 251.66L473.1 252.212C471.084 251.468 469.428 250.508 468.108 249.344C466.74 250.652 465 251.612 462.912 252.212L462.576 251.636C464.64 251.06 466.344 250.16 467.664 248.936C466.236 247.544 465.24 245.9 464.688 243.98H462.828V243.332ZM465.324 243.98C465.864 245.72 466.8 247.22 468.12 248.48C469.26 247.256 470.088 245.756 470.604 243.98H465.324ZM480.2 248.96H476.828V245.48H484.196V248.96H480.848V249.968H485.768V250.568H480.848V252.14H480.2V250.568H475.232V249.968H480.2V248.96ZM477.476 247.484V248.408H483.548V247.484H477.476ZM483.548 246.956V246.032H477.476V246.956H483.548ZM477.896 242.696H476.024V242.132H480.14C480.02 241.796 479.888 241.496 479.756 241.22L480.452 241.1C480.584 241.4 480.704 241.748 480.824 242.132H484.976V242.696H483.14L482.636 243.992H485.6V244.568H475.412V243.992H478.4L477.896 242.696ZM479.048 243.992H481.964L482.468 242.696H478.544L479.048 243.992ZM488.548 251.372V252.14H487.948V248.06H491.044V251.984H490.444V251.372H488.548ZM490.444 250.772V248.648H488.548V250.772H490.444ZM487.636 242.912H491.344V243.524H487.636V242.912ZM487.996 244.652H490.996V245.24H487.996V244.652ZM487.996 246.26H490.996V246.86H487.996V246.26ZM494.704 244.04H491.896V243.416H495.652C496.036 242.732 496.372 242 496.66 241.208L497.296 241.424C496.996 242.18 496.66 242.84 496.276 243.416H498.148V244.04H495.352V245.996H497.8V246.62H495.352V248.636H498.46V249.248H495.352V252.212H494.704V249.248H491.608V248.636H494.704V246.62H492.268V245.996H494.704V244.04ZM493.288 241.256C493.66 241.784 494.008 242.372 494.344 242.996L493.816 243.272C493.48 242.612 493.12 242.024 492.736 241.508L493.288 241.256ZM489.412 241.232C489.664 241.736 489.856 242.192 489.988 242.612L489.436 242.828C489.244 242.336 489.028 241.856 488.776 241.4L489.412 241.232ZM507.12 241.148H507.768V242.048H510.648V242.6H507.768V243.572H510.24V244.112H507.768V245.072H510.984V245.636H503.916V245.072H507.12V244.112H504.612V243.572H507.12V242.6H504.204V242.048H507.12V241.148ZM505.476 248.648V248.84C505.464 249.128 505.44 249.392 505.416 249.656H509.352V248.648H505.476ZM509.352 248.132V247.076H505.476V248.132H509.352ZM505.332 250.172C505.164 250.952 504.864 251.624 504.432 252.176L503.952 251.744C504.528 250.988 504.828 250.04 504.852 248.888V246.536H509.976V251.252C509.976 251.816 509.688 252.104 509.124 252.104H507.696L507.54 251.528C508.044 251.552 508.512 251.564 508.944 251.564C509.208 251.564 509.352 251.384 509.352 251.036V250.172H505.332ZM500.412 243.512L500.928 243.56C500.904 244.76 500.772 245.9 500.532 246.98L500.016 246.848C500.244 245.792 500.376 244.676 500.412 243.512ZM503.076 243.284C503.376 243.932 503.64 244.664 503.88 245.492L503.376 245.624C503.172 244.868 502.92 244.136 502.608 243.44L503.076 243.284ZM501.66 241.268H502.308V252.116H501.66V241.268ZM514.184 243.62H517.304C517.436 243.212 517.532 242.78 517.592 242.348H512.876V241.748H523.124V242.348H518.24C518.168 242.792 518.084 243.212 517.964 243.62H521.996V250.004H514.184V243.62ZM521.372 249.392V247.988H514.832V249.392H521.372ZM514.832 247.412H521.372V246.092H514.832V247.412ZM514.832 245.516H521.372V244.22H514.832V245.516ZM519.428 250.292C520.868 250.652 522.176 251.096 523.352 251.624L522.992 252.152C521.744 251.552 520.448 251.084 519.128 250.748L519.428 250.292ZM516.512 250.292L516.848 250.736C515.936 251.336 514.628 251.816 512.912 252.176L512.6 251.636C514.316 251.288 515.624 250.844 516.512 250.292Z" fill="#1A1A1A"/>
<rect x="199" y="408" width="100" height="32" rx="4" fill="#00FFB3"/>
<path d="M228.98 424.244H229.544V426.308H230.768C230.804 426.044 230.828 425.78 230.84 425.516V423.968H231.44V425.516C231.416 426.476 231.224 427.244 230.84 427.82C230.456 428.348 229.844 428.768 228.98 429.08L228.644 428.564C229.448 428.288 230.024 427.904 230.36 427.424C230.468 427.244 230.552 427.052 230.624 426.86H228.98V424.244ZM234.38 424.268H234.956V426.98H233.132V429.224H232.532V423.968H233.132V426.404H234.38V424.268ZM231.224 421.472C231.464 422.108 231.668 422.84 231.86 423.656L231.368 423.788C231.32 423.56 231.26 423.344 231.212 423.14C230.288 423.32 229.436 423.464 228.656 423.572L228.536 423.08C229.004 422.816 229.604 422.132 230.336 421.016C229.772 421.064 229.22 421.124 228.68 421.172L228.536 420.668C228.632 420.632 228.704 420.56 228.764 420.464C229.244 419.816 229.652 419.048 230 418.172L230.54 418.388C230.108 419.324 229.676 420.068 229.244 420.62C229.724 420.596 230.192 420.548 230.672 420.488C230.876 420.152 231.08 419.792 231.296 419.432L231.812 419.636C230.804 421.34 230 422.456 229.4 422.984C229.88 422.912 230.444 422.804 231.092 422.684C230.984 422.312 230.876 421.964 230.756 421.628L231.224 421.472ZM234.8 421.316C235.052 422 235.28 422.792 235.472 423.68L234.992 423.812C234.944 423.56 234.884 423.32 234.824 423.08C233.924 423.224 233.084 423.332 232.316 423.416L232.196 422.912C232.604 422.66 233.132 422 233.768 420.932C233.216 420.992 232.676 421.04 232.148 421.088L232.016 420.596C232.1 420.56 232.172 420.488 232.244 420.392C232.64 419.768 232.988 419.048 233.288 418.232L233.84 418.448C233.456 419.336 233.084 420.032 232.7 420.56C233.156 420.512 233.612 420.464 234.08 420.404C234.248 420.08 234.44 419.732 234.632 419.372L235.148 419.564C234.26 421.232 233.552 422.324 233.012 422.84C233.492 422.78 234.044 422.696 234.692 422.6C234.584 422.204 234.464 421.82 234.332 421.46L234.8 421.316ZM224.588 418.796H228.632V419.396H227.936V429.26H227.324V426.848C226.484 427.196 225.608 427.484 224.672 427.712L224.516 427.112C224.732 427.064 224.936 427.016 225.128 426.968V419.396H224.588V418.796ZM225.728 426.8C226.28 426.632 226.82 426.452 227.324 426.248V424.496H225.728V426.8ZM225.728 423.896H227.324V421.952H225.728V423.896ZM225.728 421.352H227.324V419.396H225.728V421.352ZM237.652 426.056L238.252 426.128C238.18 427.196 238 428.144 237.736 428.96L237.136 428.78C237.412 427.988 237.58 427.088 237.652 426.056ZM239.596 425.96C239.752 426.728 239.884 427.568 239.992 428.456L239.404 428.588C239.308 427.652 239.188 426.812 239.056 426.092L239.596 425.96ZM240.652 423.02C240.94 423.668 241.192 424.424 241.408 425.288L240.856 425.42C240.796 425.204 240.736 424.988 240.688 424.796C239.572 425.108 238.492 425.324 237.448 425.444L237.28 424.856C237.4 424.808 237.496 424.76 237.568 424.688C238.084 424.196 238.696 423.392 239.404 422.264C238.684 422.372 237.988 422.468 237.292 422.552L237.148 421.976C237.244 421.928 237.328 421.856 237.412 421.736C238.12 420.74 238.732 419.576 239.248 418.244L239.86 418.484C239.212 419.936 238.564 421.088 237.916 421.928C238.54 421.868 239.152 421.784 239.764 421.688C240.04 421.208 240.328 420.704 240.64 420.152L241.252 420.38C240.028 422.492 239.02 423.956 238.228 424.772C238.996 424.652 239.764 424.496 240.532 424.304C240.412 423.92 240.268 423.548 240.124 423.2L240.652 423.02ZM240.94 425.696C241.216 426.344 241.456 427.04 241.66 427.784L241.12 428.024C240.904 427.208 240.676 426.5 240.412 425.876L240.94 425.696ZM246.94 424.76V429.164H246.316V428.552H243.112V429.128H242.488V424.76H246.94ZM243.112 427.94H246.316V425.372H243.112V427.94ZM243.448 418.208L244.048 418.352C243.904 418.7 243.76 419.036 243.616 419.36H246.94V419.84C246.508 420.848 245.884 421.736 245.092 422.504C245.908 423.128 246.88 423.668 248.008 424.112L247.744 424.676C246.52 424.148 245.5 423.548 244.672 422.876C243.856 423.56 242.884 424.148 241.756 424.628L241.372 424.136C242.476 423.668 243.424 423.116 244.204 422.48C243.628 421.952 243.16 421.376 242.788 420.764C242.464 421.22 242.116 421.628 241.744 422.012L241.336 421.532C242.224 420.644 242.92 419.54 243.448 418.208ZM244.624 422.12C245.308 421.472 245.848 420.74 246.244 419.948H243.304C243.232 420.068 243.172 420.176 243.112 420.272C243.496 420.956 244 421.568 244.624 422.12ZM255.132 423.86V424.52C254.4 424.772 253.632 425 252.828 425.204V428.072C252.828 428.696 252.492 429.008 251.832 429.008H250.512L250.368 428.396C250.8 428.42 251.22 428.432 251.604 428.432C251.988 428.432 252.18 428.252 252.18 427.904V425.36C251.376 425.54 250.548 425.696 249.684 425.84L249.588 425.204C250.5 425.06 251.364 424.892 252.18 424.7V422.192H249.612V421.568H252.18V419.684C251.508 419.828 250.812 419.948 250.08 420.044L249.948 419.42C251.676 419.228 253.2 418.868 254.52 418.352L254.748 418.964C254.148 419.18 253.512 419.372 252.828 419.54V421.568H255.972C255.888 420.572 255.852 419.468 255.852 418.244H256.5C256.5 419.504 256.536 420.608 256.608 421.568H260.388V422.192H256.656C256.74 423.104 256.86 423.884 257.016 424.508C257.1 424.868 257.196 425.204 257.304 425.516C257.94 424.772 258.492 423.92 258.96 422.96L259.524 423.26C258.972 424.4 258.312 425.384 257.544 426.2C257.724 426.668 257.928 427.064 258.144 427.4C258.552 428 258.888 428.3 259.152 428.3C259.44 428.288 259.692 427.568 259.896 426.152L260.472 426.464C260.184 428.144 259.776 428.996 259.248 428.996C258.78 428.996 258.276 428.624 257.736 427.904C257.484 427.556 257.256 427.148 257.052 426.68C256.164 427.508 255.144 428.144 254.004 428.588L253.644 428.036C254.856 427.58 255.912 426.908 256.8 426.032C256.644 425.6 256.512 425.144 256.392 424.64C256.224 423.944 256.104 423.128 256.02 422.192H252.828V424.544C253.644 424.328 254.412 424.1 255.132 423.86ZM257.82 418.4C258.684 418.988 259.416 419.588 260.016 420.2L259.56 420.656C259.02 420.08 258.288 419.468 257.376 418.82L257.82 418.4ZM263.54 422.012C263.132 422.708 262.688 423.368 262.196 423.98L261.98 423.284C263.096 421.796 263.9 420.104 264.404 418.22L264.992 418.484C264.764 419.288 264.488 420.044 264.176 420.74V429.116H263.54V422.012ZM266.132 421.136V422.528H267.92V421.136H266.132ZM267.92 420.596V419.252H266.132V420.596H267.92ZM270.008 421.136V422.528H271.892V421.136H270.008ZM271.892 420.596V419.252H270.008V420.596H271.892ZM268.532 418.676V423.092H266.132V429.116H265.508V418.676H268.532ZM271.892 423.104H269.384V418.676H272.492V428.18C272.492 428.744 272.216 429.032 271.676 429.032C271.148 429.032 270.644 429.02 270.14 429.008L269.984 428.42C270.5 428.432 270.992 428.444 271.448 428.444C271.736 428.444 271.892 428.288 271.892 427.976V423.104Z" fill="#1A1A1A"/>
<rect x="321" y="231" width="100" height="32" rx="4" stroke="white" stroke-linecap="round"/>
<path d="M348.736 245.156C348.16 245.456 347.548 245.744 346.876 246.008L346.504 245.408C348.796 244.592 350.452 243.548 351.46 242.276H349.024V241.664H352.396C353.344 243.14 355.012 244.316 357.388 245.204L356.944 245.792C354.772 244.916 353.152 243.764 352.072 242.324C351.316 243.404 350.212 244.34 348.76 245.144H355.204V245.78H352.348V248.108H355.888V248.744H352.348V251.156H356.98V251.792H347.092V251.156H351.688V248.744H348.1V248.108H351.688V245.78H348.736V245.156ZM365.796 241.76H369.636V242.264C369.228 243.548 368.772 244.748 368.292 245.852C369.288 247.076 369.792 248.084 369.804 248.864C369.804 249.488 369.636 249.92 369.324 250.172C368.988 250.412 368.328 250.544 367.32 250.544L367.128 249.872C367.368 249.896 367.584 249.908 367.752 249.908C368.352 249.896 368.724 249.824 368.892 249.68C369.06 249.524 369.144 249.248 369.144 248.864C369.132 248.096 368.616 247.1 367.608 245.852C368.064 244.868 368.496 243.704 368.916 242.372H366.432V252.14H365.796V241.76ZM359.328 242.516H361.812C361.668 242.06 361.524 241.64 361.368 241.28L362.028 241.16C362.172 241.568 362.316 242.012 362.436 242.516H364.944V243.14H364.296C364.032 244.148 363.732 245.036 363.408 245.804H365.016V246.44H359.148V245.804H360.78C360.588 244.856 360.324 243.968 360.012 243.14H359.328V242.516ZM362.784 245.804C363.12 244.964 363.396 244.076 363.636 243.14H360.66C360.924 243.896 361.176 244.784 361.404 245.804H362.784ZM364.416 247.784V252.152H363.768V251.48H360.54V252.152H359.904V247.784H364.416ZM360.54 250.844H363.768V248.408H360.54V250.844ZM371.828 243.332H376.892C376.568 242.636 376.16 242 375.656 241.4L376.304 241.16C376.772 241.76 377.204 242.492 377.588 243.332H382.172V243.98H380.264C379.688 245.948 378.788 247.58 377.564 248.876C378.872 250.004 380.504 250.94 382.46 251.66L382.1 252.212C380.084 251.468 378.428 250.508 377.108 249.344C375.74 250.652 374 251.612 371.912 252.212L371.576 251.636C373.64 251.06 375.344 250.16 376.664 248.936C375.236 247.544 374.24 245.9 373.688 243.98H371.828V243.332ZM374.324 243.98C374.864 245.72 375.8 247.22 377.12 248.48C378.26 247.256 379.088 245.756 379.604 243.98H374.324ZM389.2 248.96H385.828V245.48H393.196V248.96H389.848V249.968H394.768V250.568H389.848V252.14H389.2V250.568H384.232V249.968H389.2V248.96ZM386.476 247.484V248.408H392.548V247.484H386.476ZM392.548 246.956V246.032H386.476V246.956H392.548ZM386.896 242.696H385.024V242.132H389.14C389.02 241.796 388.888 241.496 388.756 241.22L389.452 241.1C389.584 241.4 389.704 241.748 389.824 242.132H393.976V242.696H392.14L391.636 243.992H394.6V244.568H384.412V243.992H387.4L386.896 242.696ZM388.048 243.992H390.964L391.468 242.696H387.544L388.048 243.992Z" fill="white"/>
<rect x="321" y="271" width="100" height="32" rx="4" stroke="white" stroke-linecap="round"/>
<path d="M346.732 285.936H357.292V286.512H351.82V292.2H351.172V291.024C350.068 291.24 348.628 291.408 346.852 291.528L346.768 290.952L347.908 290.88V286.512H346.732V285.936ZM348.532 290.832C349.528 290.736 350.404 290.628 351.172 290.484V289.596H348.532V290.832ZM348.532 289.092H351.172V288.048H348.532V289.092ZM348.532 287.544H351.172V286.512H348.532V287.544ZM352.912 288H352.552V287.424H356.548V287.964C356.284 288.924 355.828 289.74 355.192 290.424C355.768 290.892 356.476 291.3 357.316 291.66L356.98 292.188C356.092 291.78 355.36 291.336 354.772 290.832C354.16 291.36 353.428 291.804 352.564 292.164L352.228 291.66C353.068 291.312 353.764 290.892 354.328 290.412C353.632 289.692 353.152 288.888 352.912 288ZM354.736 290.016C355.288 289.428 355.696 288.756 355.948 288H353.5C353.728 288.756 354.136 289.428 354.736 290.016ZM355.72 281.712V285.204H355.072V282.228H348.976V285.24H348.34V281.712H355.72ZM349.516 283.164H354.532V283.632H349.516V283.164ZM349.492 284.46H354.556V284.94H349.492V284.46ZM361.608 285.66H359.148V285.048H360.612C360.444 284.52 360.24 284.04 360 283.584L360.576 283.356C360.804 283.836 361.008 284.4 361.2 285.048H362.628C362.844 284.52 363.036 283.956 363.204 283.356L363.804 283.56C363.624 284.124 363.432 284.616 363.216 285.048H364.692V285.66H362.256V287.16H364.476V287.772H362.256V292.188H361.608V287.772H359.34V287.16H361.608V285.66ZM369.324 281.376L369.636 281.952C368.556 282.384 367.368 282.648 366.048 282.72V285.108H369.996V285.72H368.664V292.188H368.028V285.72H366.048V287.172C365.988 289.248 365.532 290.904 364.692 292.14L364.224 291.648C364.968 290.568 365.364 289.08 365.412 287.172V282.18C366.852 282.144 368.148 281.88 369.324 281.376ZM359.256 282.324H361.668C361.5 281.928 361.332 281.568 361.14 281.256L361.8 281.136C361.968 281.484 362.136 281.88 362.304 282.324H364.608V282.948H359.256V282.324ZM360.276 288.54L360.876 288.66C360.564 289.884 360.12 290.94 359.556 291.84L359.016 291.492C359.592 290.628 360.012 289.644 360.276 288.54ZM363.468 288.48C363.804 289.248 364.056 289.956 364.248 290.592L363.684 290.808C363.48 290.064 363.228 289.332 362.916 288.636L363.468 288.48ZM380.36 282.516H378.296V286.032H380.36V282.516ZM380.36 286.668H378.284C378.212 289.176 377.48 291.012 376.112 292.188L375.62 291.756C376.916 290.676 377.588 288.984 377.648 286.668H376.268V286.032H377.648V282.516H376.532V281.892H382.16V282.516H380.996V286.032H382.496V286.668H380.996V292.152H380.36V286.668ZM373.376 282.576H371.84V281.952H375.944V282.576H373.988C373.82 283.608 373.556 284.58 373.196 285.48H375.464V290.76H373.4V291.744H372.776V286.404C372.488 286.98 372.152 287.52 371.792 288.024L371.444 287.472C372.428 286.056 373.064 284.424 373.376 282.576ZM373.4 290.172H374.864V286.08H373.4V290.172ZM390.436 283.044H385.444V284.676H384.796V282.42H389.164C388.984 282 388.78 281.616 388.564 281.28L389.26 281.16C389.464 281.532 389.656 281.952 389.848 282.42H394.204V284.676H393.556V283.044H391.048V284.988C391.048 285.276 391.204 285.42 391.516 285.42H394.12V285.984H391.216C390.688 285.984 390.436 285.744 390.436 285.264V283.044ZM388.348 283.248L388.84 283.548C388.216 284.916 387.004 285.792 385.204 286.2L384.892 285.672C386.62 285.3 387.772 284.496 388.348 283.248ZM388.336 285.612H388.972V286.692C388.972 286.896 388.96 287.088 388.948 287.268H392.116V291.036C392.116 291.3 392.236 291.444 392.488 291.444H393.484C393.832 291.444 394.048 291.228 394.132 290.808C394.18 290.328 394.204 289.824 394.204 289.284L394.816 289.464C394.744 290.424 394.684 291 394.636 291.216C394.516 291.768 394.132 292.056 393.496 292.056H392.392C391.78 292.056 391.48 291.744 391.48 291.132V287.892H388.864C388.708 288.804 388.384 289.572 387.904 290.184C387.232 290.988 386.14 291.624 384.616 292.08L384.256 291.528C385.744 291.096 386.812 290.496 387.448 289.728C387.82 289.212 388.072 288.6 388.216 287.892H385.048V287.268H388.3C388.324 287.076 388.336 286.884 388.336 286.692V285.612Z" fill="white"/>
<rect x="321" y="311" width="100" height="32" rx="4" stroke="white" stroke-linecap="round"/>
<path d="M353.776 322.84H351.76V326.368H353.776V322.84ZM353.776 326.98H351.76V330.676H353.776V326.98ZM354.376 330.676H356.416V326.98H354.376V330.676ZM354.376 326.368H356.416V322.84H354.376V326.368ZM356.416 331.276H351.76V332.128H351.16V322.24H357.016V332.128H356.416V331.276ZM347.128 329.116L347.68 329.188C347.608 330.256 347.428 331.204 347.164 332.032L346.576 331.852C346.876 331.06 347.056 330.148 347.128 329.116ZM348.82 329.032C348.976 329.68 349.084 330.556 349.144 331.66L348.568 331.732C348.532 330.592 348.436 329.716 348.292 329.092L348.82 329.032ZM349.984 328.696C350.248 329.344 350.464 330.04 350.656 330.76L350.14 330.976C349.948 330.184 349.732 329.488 349.504 328.888L349.984 328.696ZM349.744 325.864C350.128 326.608 350.464 327.4 350.74 328.24L350.212 328.456C350.128 328.192 350.044 327.94 349.96 327.7C348.916 328.036 347.908 328.264 346.924 328.384L346.756 327.82C346.876 327.772 346.972 327.712 347.044 327.64C347.524 327.124 348.1 326.26 348.772 325.06C348.076 325.192 347.404 325.3 346.744 325.396L346.6 324.832C346.696 324.784 346.78 324.712 346.852 324.604C347.452 323.644 347.98 322.516 348.436 321.22L349.036 321.46C348.46 322.876 347.896 323.98 347.332 324.784C347.92 324.7 348.508 324.592 349.096 324.46C349.324 324.016 349.564 323.548 349.804 323.056L350.368 323.284C349.24 325.456 348.328 326.944 347.62 327.76C348.34 327.628 349.06 327.448 349.78 327.22C349.6 326.788 349.42 326.404 349.252 326.056L349.744 325.864ZM360.468 325.108V327.424C360.468 327.544 360.456 327.652 360.456 327.772C361.128 327.652 361.728 327.508 362.28 327.34V325.648C361.692 325.42 361.092 325.24 360.468 325.108ZM362.28 325.06V322.36H360.468V324.544C361.104 324.676 361.704 324.844 362.28 325.06ZM360.432 328.384C360.348 329.908 360.072 331.168 359.604 332.176L359.112 331.732C359.592 330.616 359.844 329.188 359.856 327.46V321.748H362.904V331.06C362.904 331.744 362.604 332.092 362.028 332.092H361.008L360.852 331.492C361.2 331.504 361.524 331.516 361.824 331.516C362.124 331.516 362.28 331.288 362.28 330.844V327.94C361.704 328.108 361.08 328.264 360.432 328.384ZM364.908 321.184L365.532 321.256C365.412 321.76 365.268 322.252 365.088 322.708H369.3C369.276 325.66 369.228 327.388 369.156 327.904C369.084 328.408 368.952 328.756 368.76 328.936C368.556 329.104 368.148 329.2 367.536 329.2H367.2L366.996 328.588C367.248 328.588 367.488 328.6 367.728 328.6C368.052 328.6 368.268 328.504 368.388 328.336C368.484 328.168 368.544 327.856 368.58 327.412C368.604 326.956 368.628 325.588 368.652 323.308H364.824C364.428 324.148 363.924 324.892 363.312 325.54L362.94 325.048C363.912 323.992 364.572 322.708 364.908 321.184ZM367.248 325.024V328.204H364.632V330.676C364.632 331.108 364.836 331.336 365.256 331.348H368.268C368.64 331.336 368.904 331.204 369.06 330.94C369.18 330.712 369.264 330.208 369.336 329.416L369.912 329.596C369.84 330.34 369.744 330.88 369.624 331.204C369.408 331.672 369.012 331.912 368.424 331.936H365.052C364.356 331.936 364.02 331.576 364.02 330.856V325.024H367.248ZM364.632 327.616H366.636V325.612H364.632V327.616ZM372.512 321.472C373.4 322.06 374.156 322.648 374.756 323.248L374.276 323.716C373.724 323.152 372.98 322.552 372.044 321.916L372.512 321.472ZM372.152 324.28C372.98 324.868 373.664 325.456 374.216 326.056L373.736 326.524C373.232 325.948 372.56 325.348 371.708 324.712L372.152 324.28ZM373.952 327.58L374.528 327.82C373.928 329.32 373.268 330.736 372.536 332.056L371.912 331.78C372.692 330.412 373.376 329.008 373.952 327.58ZM381.38 327.184V332.14H380.744V331.42H376.28V332.14H375.644V327.184H381.38ZM376.28 330.796H380.744V327.784H376.28V330.796ZM380.072 322.66C380.864 323.716 381.596 324.856 382.28 326.104L381.668 326.404C381.476 326.056 381.296 325.732 381.128 325.42C379.328 325.66 377.312 325.84 375.08 325.96L374.96 325.372C375.824 324.892 376.832 323.5 377.972 321.22L378.608 321.436C377.72 323.14 376.844 324.436 375.98 325.324C377.72 325.228 379.328 325.072 380.792 324.856C380.36 324.16 379.928 323.524 379.496 322.948L380.072 322.66ZM386.14 326.428C386.14 326.296 386.152 326.176 386.152 326.056V322.24H390.184C390.028 321.868 389.848 321.532 389.656 321.232L390.316 321.112C390.496 321.448 390.664 321.82 390.82 322.24H394.756V322.864H386.8V326.056C386.74 328.576 386.188 330.604 385.156 332.116L384.664 331.672C385.468 330.532 385.948 329.02 386.092 327.136C385.54 327.64 384.916 328.108 384.208 328.54L384.04 327.904C384.796 327.484 385.492 326.992 386.14 326.428ZM384.652 323.152C385.108 323.872 385.492 324.628 385.804 325.432L385.264 325.648C384.916 324.784 384.532 324.016 384.124 323.368L384.652 323.152ZM387.448 323.956H390.4C390.496 323.692 390.592 323.404 390.664 323.116L391.288 323.176C391.216 323.452 391.144 323.716 391.048 323.956H394.612V324.532H391.66C391.984 325.096 392.404 325.6 392.92 326.032C393.376 325.624 393.7 325.288 393.892 325.024L394.372 325.336C394.108 325.648 393.748 325.972 393.304 326.332C393.772 326.668 394.3 326.968 394.876 327.22L394.612 327.784C394.144 327.556 393.724 327.316 393.352 327.064V329.632H391.252V331.312C391.252 331.864 390.976 332.14 390.436 332.14H389.5L389.368 331.576C389.668 331.6 389.956 331.612 390.232 331.612C390.496 331.612 390.628 331.456 390.628 331.168V329.632H388.36V327.124C388 327.316 387.628 327.472 387.22 327.592L386.896 327.052C387.508 326.872 388.048 326.632 388.516 326.32C388.228 326.032 387.88 325.732 387.472 325.42L387.88 325.036C388.312 325.36 388.672 325.672 388.96 325.984C389.44 325.576 389.824 325.084 390.136 324.532H387.448V323.956ZM389.476 326.356H392.452C391.852 325.804 391.384 325.204 391.048 324.532H390.808C390.472 325.252 390.028 325.864 389.476 326.356ZM388.96 328.192V329.104H392.752V328.192H388.96ZM392.752 327.724V326.884H388.96V327.724H392.752ZM388.876 330.112L389.248 330.544C388.6 331.12 387.796 331.6 386.812 331.984L386.548 331.432C387.484 331.096 388.252 330.664 388.876 330.112ZM392.416 330.112C393.28 330.496 394.06 330.964 394.78 331.516L394.456 332.02C393.688 331.408 392.896 330.928 392.104 330.592L392.416 330.112Z" fill="white"/>
<rect x="321" y="351" width="100" height="32" rx="4" stroke="white" stroke-linecap="round"/>
<path d="M351.52 365.42C351.256 366.056 350.956 366.632 350.62 367.16L350.104 366.824C350.716 365.9 351.172 364.856 351.46 363.68L352.048 363.812C351.952 364.16 351.856 364.484 351.76 364.796H356.548V365.42H354.004V365.96C353.992 366.608 353.932 367.208 353.836 367.748H357.124V368.372H353.704C353.536 368.996 353.32 369.548 353.032 370.016C352.432 370.952 351.448 371.696 350.068 372.224L349.72 371.684C351.064 371.168 352.024 370.46 352.588 369.56C352.78 369.2 352.948 368.804 353.08 368.372H349.984V367.748H353.224C353.32 367.184 353.38 366.584 353.392 365.96V365.42H351.52ZM352.708 361.112C352.924 361.508 353.14 361.952 353.332 362.456H357.1V363.08H349.276V366.056C349.228 368.576 348.688 370.604 347.656 372.116L347.164 371.672C347.956 370.532 348.424 369.02 348.568 367.136C348.004 367.664 347.38 368.144 346.684 368.588L346.516 367.964C347.272 367.52 347.968 367.004 348.616 366.428C348.616 366.296 348.628 366.176 348.628 366.056V362.456H352.684C352.492 362 352.288 361.592 352.048 361.232L352.708 361.112ZM347.152 363.092C347.584 363.824 347.944 364.604 348.256 365.42L347.716 365.648C347.38 364.76 347.008 363.992 346.612 363.32L347.152 363.092ZM354.58 369.212C355.792 370.22 356.716 371.108 357.364 371.876L356.836 372.248C356.104 371.384 355.192 370.484 354.1 369.56L354.58 369.212ZM365.94 368.12C365.616 368.996 365.064 369.728 364.284 370.304L363.888 369.812C364.704 369.212 365.244 368.432 365.508 367.496C365.556 367.304 365.592 367.1 365.64 366.884H363.336V372.128H362.712V366.284H365.724C365.772 365.828 365.808 365.348 365.82 364.832H362.364V364.22H369.612V364.832H366.42C366.408 365.348 366.384 365.828 366.336 366.284H369.24V371C369.24 371.696 368.904 372.056 368.232 372.056H367.008L366.84 371.444L368.028 371.48C368.412 371.48 368.616 371.276 368.616 370.868V366.884H366.252C366.204 367.124 366.156 367.364 366.108 367.58V367.592C366.816 368.144 367.464 368.816 368.04 369.596L367.68 370.124C367.104 369.296 366.528 368.624 365.94 368.12ZM361.104 366.38C361.104 366.248 361.116 366.128 361.116 366.02V362.228H365.184C365.04 361.856 364.872 361.52 364.692 361.22L365.352 361.1C365.508 361.424 365.664 361.796 365.82 362.228H369.708V362.84H361.74V366.02C361.692 368.54 361.164 370.568 360.18 372.08L359.7 371.648C360.468 370.496 360.924 368.972 361.068 367.076C360.516 367.532 359.904 367.964 359.232 368.372L359.064 367.736C359.796 367.352 360.48 366.896 361.104 366.38ZM359.628 363.092C360.048 363.812 360.408 364.568 360.708 365.36L360.156 365.6C359.82 364.736 359.46 363.968 359.076 363.32L359.628 363.092ZM381.8 362.564V371.6H381.152V370.784H378.62V371.636H377.984V362.564H381.8ZM378.62 370.172H381.152V363.176H378.62V370.172ZM373.268 363.536C372.956 364.22 372.608 364.856 372.212 365.432L371.648 365.084C372.44 363.932 373.028 362.624 373.412 361.172L374.048 361.316C373.892 361.868 373.724 362.408 373.532 362.912H377.168V363.536H375.32C375.308 364.496 375.248 365.372 375.152 366.164H377.276V366.776H375.068C375.008 367.148 374.936 367.496 374.864 367.82C375.656 368.636 376.472 369.56 377.3 370.592L376.916 371.168C376.028 369.968 375.284 369.044 374.684 368.408C374.192 369.824 373.292 370.988 371.996 371.912L371.576 371.384C372.872 370.46 373.736 369.272 374.168 367.82C374.252 367.484 374.324 367.136 374.396 366.776H371.756V366.164H374.492C374.588 365.372 374.648 364.496 374.66 363.536H373.268ZM391.276 366.356V370.628H388.924V371.312H388.36V366.356H391.276ZM388.924 370.1H390.712V368.708H388.924V370.1ZM388.924 368.192H390.712V366.884H388.924V368.192ZM393.964 361.832C394.228 362.456 394.468 363.164 394.684 363.956L394.18 364.088C393.988 363.356 393.76 362.648 393.484 361.976L393.964 361.832ZM389.764 361.148C389.896 361.484 390.028 361.88 390.16 362.324H391.576V362.9H391.108C391.036 363.572 390.94 364.196 390.82 364.76H392.344C392.32 363.728 392.308 362.576 392.308 361.28H392.908C392.908 362.588 392.92 363.752 392.944 364.76H394.84V365.36H392.956C392.992 366.656 393.052 367.7 393.124 368.492C393.52 367.724 393.868 366.884 394.168 365.984L394.696 366.2C394.264 367.424 393.784 368.504 393.232 369.44C393.256 369.584 393.28 369.716 393.304 369.836C393.496 370.748 393.712 371.216 393.952 371.252C394.156 371.24 394.324 370.652 394.444 369.5L394.936 369.848C394.768 371.252 394.444 371.96 393.988 371.96C393.712 371.96 393.46 371.756 393.232 371.348C393.04 371 392.896 370.592 392.788 370.136C392.284 370.868 391.756 371.504 391.18 372.032L390.736 371.648C391.456 370.976 392.08 370.22 392.632 369.356C392.608 369.284 392.596 369.212 392.596 369.164C392.476 368.408 392.392 367.136 392.356 365.36H387.76V364.76H388.876C388.756 364.064 388.612 363.452 388.468 362.9H388.048V362.324H389.548C389.428 361.928 389.284 361.568 389.128 361.244L389.764 361.148ZM390.292 364.76C390.412 364.16 390.496 363.536 390.544 362.9H389.032C389.152 363.452 389.272 364.076 389.392 364.76H390.292ZM385.78 361.184C385.996 361.688 386.176 362.144 386.296 362.576L385.732 362.78C385.576 362.288 385.384 361.808 385.156 361.352L385.78 361.184ZM384.124 362.876H387.616V363.476H384.124V362.876ZM384.556 364.652H387.244V365.204H384.556V364.652ZM384.556 366.356H387.244V366.92H384.556V366.356ZM387.328 368.06V371.984H386.728V371.3H385.084V371.984H384.484V368.06H387.328ZM385.084 370.724H386.728V368.624H385.084V370.724Z" fill="white"/>
<path d="M124.5 17H142C152.77 17 161.5 25.7304 161.5 36.5V36.5C161.5 47.2696 170.23 56 181 56H198.5" stroke="#9A9A9A"/>
<path d="M125 17H142C153.046 17 162 25.9543 162 37V99C162 110.046 170.954 119 182 119H199" stroke="#9A9A9A"/>
<path d="M125 17H141.5C152.546 17 161.5 25.9543 161.5 37V164C161.5 175.046 170.454 184 181.5 184H198" stroke="#9A9A9A"/>
<path d="M125 17H142C153.046 17 162 25.9543 162 37V227C162 238.046 170.954 247 182 247H199" stroke="#9A9A9A"/>
<path d="M124 17H141.5C152.546 17 161.5 25.9543 161.5 37V403C161.5 414.046 170.454 423 181.5 423H199" stroke="#9A9A9A"/>
<path d="M321 247H299" stroke="#9A9A9A"/>
<path d="M421 247H443" stroke="#9A9A9A"/>
<path d="M16 56.748C16.528 56.748 16.996 56.928 17.38 57.312C17.752 57.684 17.944 58.14 17.944 58.68C17.944 59.208 17.752 59.676 17.38 60.06C16.996 60.432 16.528 60.624 16 60.624C15.46 60.624 15.004 60.432 14.632 60.06C14.248 59.676 14.068 59.208 14.068 58.68C14.068 58.14 14.248 57.684 14.632 57.312C15.004 56.928 15.46 56.748 16 56.748ZM30.664 53.172H31.336V55.392H35.68V60.912H35.02V60.108H31.336V64.26H30.664V60.108H26.992V60.912H26.332V55.392H30.664V53.172ZM26.992 59.472H30.664V56.04H26.992V59.472ZM31.336 59.472H35.02V56.04H31.336V59.472ZM47.28 57.072V60.06H48.804V60.672H43.536C43.32 61.32 42.984 61.872 42.528 62.352C41.736 63.132 40.416 63.744 38.58 64.188L38.208 63.624C40.032 63.204 41.316 62.628 42.084 61.896C42.42 61.536 42.672 61.128 42.852 60.672H38.196V60.06H39.696V57.072H43.176V55.956H43.824V57.072H47.28ZM40.344 60.06H43.032C43.116 59.712 43.164 59.352 43.176 58.968V57.684H40.344V60.06ZM43.824 57.684V58.968C43.812 59.352 43.776 59.724 43.704 60.06H46.632V57.684H43.824ZM38.364 54.324H41.028V53.196H41.664V54.324H43.212V54.948H41.664V56.088H41.028V54.948H38.364V54.324ZM45.348 53.196H45.984V54.324H48.648V54.948H45.984V56.088H45.348V54.948H43.8V54.324H45.348V53.196ZM44.184 61.596C46.044 62.22 47.628 62.916 48.948 63.672L48.504 64.2C47.268 63.444 45.696 62.736 43.8 62.076L44.184 61.596ZM50.828 55.332H55.892C55.568 54.636 55.16 54 54.656 53.4L55.304 53.16C55.772 53.76 56.204 54.492 56.588 55.332H61.172V55.98H59.264C58.688 57.948 57.788 59.58 56.564 60.876C57.872 62.004 59.504 62.94 61.46 63.66L61.1 64.212C59.084 63.468 57.428 62.508 56.108 61.344C54.74 62.652 53 63.612 50.912 64.212L50.576 63.636C52.64 63.06 54.344 62.16 55.664 60.936C54.236 59.544 53.24 57.9 52.688 55.98H50.828V55.332ZM53.324 55.98C53.864 57.72 54.8 59.22 56.12 60.48C57.26 59.256 58.088 57.756 58.604 55.98H53.324ZM64.132 63.384V64.152H63.532V60.048H66.664V63.984H66.064V63.384H64.132ZM66.064 62.784V60.636H64.132V62.784H66.064ZM63.16 54.876H66.952V55.476H63.16V54.876ZM63.616 56.568H66.58V57.144H63.616V56.568ZM63.616 58.26H66.58V58.836H63.616V58.26ZM67.48 53.748H73.576V54.348H70.42L70.12 55.896H72.952V58.296H73.912V58.908H67.396V58.296H69.04L69.388 56.484H67.852V55.896H69.508L69.808 54.348H67.48V53.748ZM69.652 58.296H72.352V56.484H70L69.652 58.296ZM73.132 60.156V64.188H72.52V63.576H68.656V64.188H68.044V60.156H73.132ZM68.656 62.988H72.52V60.744H68.656V62.988ZM64.9 53.16C65.212 53.676 65.464 54.144 65.632 54.576L65.08 54.78C64.864 54.276 64.6 53.796 64.288 53.328L64.9 53.16ZM80.604 64.116H79.236L79.104 63.504C79.548 63.528 79.98 63.552 80.388 63.552C80.676 63.552 80.82 63.408 80.82 63.12V60.06C79.572 60.132 78.216 60.204 76.752 60.264L76.572 59.7C76.788 59.676 76.98 59.64 77.148 59.58C78.432 59.172 79.872 58.5 81.48 57.552C80.04 57.648 78.612 57.732 77.184 57.804L77.088 57.228C78.648 56.82 80.184 56.016 81.72 54.816L82.212 55.164C81.108 56.028 79.944 56.724 78.708 57.252C79.944 57.18 81.168 57.096 82.392 57C82.932 56.664 83.496 56.292 84.072 55.896L84.684 56.196C82.284 57.828 80.196 58.992 78.408 59.664C80.712 59.544 82.68 59.412 84.3 59.244C83.988 58.812 83.652 58.368 83.292 57.924L83.772 57.624C84.696 58.752 85.404 59.724 85.896 60.552L85.38 60.912C85.164 60.54 84.924 60.156 84.66 59.748C83.724 59.856 82.656 59.952 81.456 60.024V63.288C81.456 63.84 81.168 64.116 80.604 64.116ZM83.004 60.732C84.18 61.656 85.164 62.58 85.944 63.492L85.488 63.948C84.78 63.06 83.808 62.124 82.584 61.14L83.004 60.732ZM78.852 60.852L79.296 61.26C78.468 62.268 77.448 63.144 76.248 63.9L75.84 63.384C77.028 62.664 78.036 61.812 78.852 60.852ZM83.544 53.316L84.096 53.652C83.136 54.024 82.176 54.324 81.192 54.564C80.1 54.828 78.732 55.08 77.076 55.32L76.728 54.78C78.228 54.612 79.548 54.396 80.7 54.132C81.756 53.892 82.704 53.628 83.544 53.316ZM94.844 54.72H92.444V54.084H98.552C98.552 58.26 98.492 60.828 98.372 61.812C98.24 63.18 97.58 63.876 96.404 63.876C96.164 63.876 95.744 63.864 95.144 63.84L94.988 63.24C95.492 63.264 95.936 63.276 96.32 63.276C97.136 63.276 97.616 62.712 97.736 61.608C97.832 60.816 97.88 58.512 97.904 54.72H95.48V56.1C95.432 59.82 94.16 62.532 91.652 64.236L91.136 63.78C93.56 62.184 94.796 59.628 94.844 56.1V54.72ZM89.66 62.46L89.468 61.836C89.648 61.728 89.744 61.56 89.744 61.32V56.844H88.184V56.208H89.744V53.376H90.392V56.208H92.72V56.844H90.392V61.5C91.136 61.212 91.892 60.876 92.648 60.48L92.816 61.08C91.976 61.584 90.92 62.052 89.66 62.46ZM101.98 64.032H100.948L100.804 63.408C101.14 63.432 101.452 63.456 101.752 63.456C102.028 63.456 102.172 63.3 102.172 63V59.712C101.704 59.892 101.224 60.06 100.744 60.216L100.588 59.592C101.128 59.448 101.656 59.28 102.172 59.088V56.124H100.744V55.512H102.172V53.244H102.796V55.512H103.924V56.124H102.796V58.836C103.228 58.644 103.648 58.428 104.068 58.2V58.848C103.648 59.064 103.228 59.268 102.796 59.46V63.168C102.796 63.744 102.52 64.032 101.98 64.032ZM110.668 55.98V60.492H111.472V61.092H107.896C107.704 61.656 107.428 62.136 107.08 62.544C106.516 63.204 105.52 63.72 104.104 64.104L103.864 63.552C105.136 63.216 106.048 62.76 106.612 62.16C106.876 61.848 107.104 61.5 107.272 61.092H104.2V60.492H105.076V56.136C104.86 56.328 104.644 56.52 104.428 56.688L104.032 56.22C105.112 55.416 105.964 54.408 106.6 53.184L107.2 53.328C107.08 53.568 106.948 53.808 106.816 54.024H109.636V54.492C109.228 55.092 108.808 55.584 108.4 55.98H110.668ZM107.656 55.98C108.088 55.572 108.496 55.104 108.88 54.576H106.456C106.096 55.08 105.688 55.548 105.256 55.98H107.656ZM105.664 60.492H107.464C107.536 60.192 107.596 59.88 107.632 59.544L108.232 59.604C108.184 59.916 108.136 60.216 108.076 60.492H110.068V56.544H105.664V60.492ZM107.788 58.248C107.452 58.812 107.032 59.268 106.504 59.604L106.18 59.196C106.996 58.644 107.536 57.888 107.776 56.916L108.292 56.976C108.208 57.276 108.112 57.552 108.004 57.816C108.616 58.2 109.144 58.62 109.6 59.076L109.264 59.472C108.868 59.04 108.376 58.632 107.788 58.248ZM108.436 61.68C109.564 62.22 110.596 62.88 111.532 63.66L111.184 64.176C110.188 63.312 109.168 62.64 108.124 62.148L108.436 61.68Z" fill="white"/>
</svg>
