<svg width="550" height="658" viewBox="0 0 550 658" fill="none" xmlns="http://www.w3.org/2000/svg">
<rect x="131.564" y="35" width="110" height="32" rx="4" fill="#2C2C2C"/>
<path d="M175.192 53.74L175 53.176C175.144 53.128 175.228 53.044 175.228 52.924V46.324H175.876V52.972C176.548 52.78 177.208 52.552 177.856 52.288V45.28H178.504V56.116H177.856V52.924C177.004 53.236 176.116 53.5 175.192 53.74ZM180.964 47.764C180.532 48.892 179.992 49.828 179.32 50.572L178.912 50.092C179.932 48.868 180.616 47.236 180.976 45.172L181.624 45.292C181.504 45.952 181.348 46.564 181.18 47.128H185.296V47.764H184.24C184.168 49.804 183.664 51.532 182.74 52.972C183.508 54.004 184.444 54.916 185.536 55.708L185.092 56.236C184 55.444 183.076 54.544 182.332 53.548C181.54 54.58 180.496 55.444 179.224 56.14L178.852 55.552C180.16 54.88 181.192 54.04 181.948 53.02C181.264 52.036 180.724 50.956 180.328 49.78L180.856 49.48C181.228 50.548 181.72 51.532 182.344 52.432C183.136 51.112 183.568 49.552 183.616 47.764H180.964ZM187.68 47.632H188.256V49.744H189.54V48.136H194.952V47.644H194.424V46.684H192.9V46.096H194.424V45.244H195.036V46.096H197.712V46.684H195.036V47.392H195.528C195.528 47.644 195.528 47.896 195.54 48.136H196.656C196.524 47.776 196.38 47.44 196.224 47.14L196.788 47.044C196.932 47.368 197.064 47.728 197.196 48.136H197.868V48.7H195.552C195.576 50.272 195.672 51.496 195.828 52.384C195.864 52.612 195.912 52.828 195.96 53.044C196.344 52.096 196.596 50.956 196.74 49.624L197.304 49.744C197.112 51.448 196.74 52.84 196.188 53.908C196.272 54.208 196.368 54.472 196.476 54.7C196.716 55.18 196.908 55.432 197.064 55.432C197.232 55.408 197.388 54.82 197.52 53.668L198.012 53.932C197.82 55.396 197.532 56.128 197.172 56.128C196.872 56.128 196.548 55.828 196.188 55.252C196.056 55.024 195.936 54.772 195.84 54.508C195.384 55.18 194.844 55.708 194.22 56.08L193.908 55.588C194.592 55.18 195.156 54.58 195.588 53.8C195.48 53.428 195.384 53.02 195.3 52.588C195.108 51.58 195 50.284 194.964 48.7H190.128V52.372C190.104 53.956 189.804 55.228 189.24 56.188L188.772 55.768C189.252 54.952 189.516 53.824 189.54 52.372V52.228H188.4C188.352 53.86 188.052 55 187.5 55.624L187.044 55.276C187.548 54.724 187.824 53.716 187.872 52.228H187.14V51.664H189.54V50.32H187.68V47.632ZM187.428 46.096H190.104V45.244H190.716V46.096H192.228V46.684H190.716V47.644H190.104V46.684H187.428V46.096ZM194.244 53.452H193.116V54.772H194.304V55.312H190.932V49.54H194.304V50.068H193.116V51.292H194.244V53.452ZM192.588 50.068H191.472V51.292H192.588V50.068ZM191.472 51.796V52.948H193.716V51.796H191.472ZM191.472 53.452V54.772H192.588V53.452H191.472Z" fill="white"/>
<rect x="131.564" y="262" width="110" height="32" rx="4" fill="#2C2C2C"/>
<path d="M181.864 272.232H182.488V275.148L185.032 274.392C184.996 275.82 184.828 277.344 184.528 278.964L183.916 278.772C184.144 277.62 184.312 276.42 184.408 275.196L182.488 275.772V280.584H181.864V275.964L180.112 276.504V281.688C180.112 282.12 180.304 282.348 180.688 282.348H183.868C184.168 282.348 184.384 282.264 184.504 282.096C184.66 281.868 184.768 281.22 184.828 280.152L185.44 280.344C185.368 281.568 185.212 282.324 184.972 282.612C184.756 282.84 184.432 282.96 184 282.96H180.496C179.812 282.96 179.476 282.576 179.476 281.82V276.696L178.528 276.984V276.336L179.476 276.06V273.444H180.112V275.868L181.864 275.34V272.232ZM174.724 275.556H176.224V272.268H176.872V275.556H178.288V276.192H176.872V280.404C177.448 280.2 178.012 279.972 178.564 279.72V280.38C177.388 280.908 176.104 281.352 174.736 281.688L174.568 281.04C175.144 280.92 175.696 280.776 176.224 280.62V276.192H174.724V275.556ZM190.14 274.08H195.024V275.904H192.816L192.612 276.552H196.2V277.032H188.964V276.552H192.012L192.216 275.904H190.14V274.08ZM194.46 275.484V274.512H190.704V275.484H194.46ZM189.588 277.704H195.564V281.4H189.588V277.704ZM195.012 280.956V278.124H190.152V280.956H195.012ZM191.112 278.748H194.052V280.344H191.112V278.748ZM193.56 279.984V279.096H191.604V279.984H193.56ZM197.412 272.76V283.176H196.8V282.684H188.352V283.212H187.74V272.76H197.412ZM188.352 282.144H196.8V273.336H188.352V282.144Z" fill="white"/>
<rect x="131.564" y="492" width="110" height="32" rx="4" fill="#2C2C2C"/>
<path d="M177.376 502.22L177.964 502.496C177.652 503.444 177.256 504.332 176.8 505.148V513.164H176.152V506.192C175.72 506.816 175.24 507.404 174.724 507.956L174.52 507.284C175.84 505.796 176.788 504.104 177.376 502.22ZM185.152 502.748V513.164H184.552V512.444H178.996V513.164H178.396V502.748H185.152ZM178.996 511.844H184.552V503.324H178.996V511.844ZM179.656 505.436H181.504V503.984H182.068V505.436H183.928V506.012H182.068V507.548H183.388V510.872H180.22V507.548H181.504V506.012H179.656V505.436ZM182.848 510.344V508.076H180.748V510.344H182.848ZM192.9 502.244C192.9 503.264 192.864 504.14 192.816 504.872C193.488 508.208 195.252 510.752 198.084 512.504L197.652 513.056C195.072 511.388 193.38 509.132 192.588 506.3C191.928 509.024 190.212 511.28 187.428 513.068L187.032 512.492C190.38 510.404 192.108 507.644 192.228 504.188C192.228 503.348 192.24 502.7 192.24 502.244H192.9Z" fill="white"/>
<path d="M1.58755 6.576H6.25955C8.88355 6.576 10.1955 7.696 10.1955 9.936C10.1955 12.192 8.86755 13.328 6.24355 13.328H2.89955V18H1.58755V6.576ZM2.89955 7.712V12.192H6.17955C7.10755 12.192 7.77955 12 8.22755 11.632C8.65955 11.264 8.88355 10.704 8.88355 9.936C8.88355 9.168 8.65955 8.608 8.21155 8.272C7.76355 7.888 7.09155 7.712 6.17955 7.712H2.89955ZM12.7492 6.608C13.0212 6.608 13.2452 6.688 13.4372 6.88C13.6292 7.04 13.7252 7.264 13.7252 7.552C13.7252 7.824 13.6292 8.048 13.4372 8.24C13.2452 8.416 13.0212 8.512 12.7492 8.512C12.4772 8.512 12.2532 8.416 12.0612 8.24C11.8692 8.048 11.7892 7.824 11.7892 7.552C11.7892 7.264 11.8692 7.04 12.0612 6.88C12.2532 6.688 12.4772 6.608 12.7492 6.608ZM12.1092 9.728H13.3892V18H12.1092V9.728ZM19.6589 9.504C21.7069 9.504 22.7469 10.64 22.7469 12.912V18H21.4669V13.008C21.4669 11.392 20.7309 10.592 19.2909 10.592C18.7149 10.592 18.2189 10.8 17.8029 11.216C17.3549 11.664 17.1149 12.256 17.0669 13.008V18H15.7869V9.728H17.0669V10.944C17.3549 10.48 17.7229 10.128 18.1709 9.888C18.6189 9.632 19.1149 9.504 19.6589 9.504ZM28.1324 9.504C29.3804 9.504 30.3084 10.048 30.9164 11.152V9.728H32.1964V17.424C32.1964 20.064 30.9324 21.392 28.4204 21.392C27.3004 21.392 26.4364 21.168 25.8604 20.72C25.2684 20.272 24.9004 19.6 24.7564 18.704H26.0364C26.1324 19.264 26.3724 19.68 26.7404 19.936C27.1084 20.208 27.6684 20.352 28.4204 20.352C30.0844 20.352 30.9164 19.424 30.9164 17.6V16.144C30.3084 17.248 29.3804 17.808 28.1324 17.808C26.9804 17.808 26.0684 17.408 25.3964 16.624C24.7244 15.856 24.4044 14.88 24.4044 13.68C24.4044 12.464 24.7244 11.488 25.3964 10.72C26.0684 9.904 26.9804 9.504 28.1324 9.504ZM28.3244 10.56C27.4924 10.56 26.8524 10.848 26.3884 11.456C25.9404 12 25.7164 12.752 25.7164 13.68C25.7164 14.544 25.9084 15.264 26.3084 15.808C26.7564 16.416 27.4124 16.736 28.3084 16.736C29.1404 16.736 29.7804 16.448 30.2604 15.872C30.7084 15.312 30.9324 14.576 30.9324 13.68C30.9324 12.752 30.7084 12 30.2604 11.456C29.7804 10.848 29.1404 10.56 28.3244 10.56ZM37.8735 9.504C39.1055 9.504 40.0975 9.92 40.8335 10.784C41.5375 11.6 41.8895 12.624 41.8895 13.872C41.8895 15.104 41.5375 16.128 40.8495 16.928C40.0975 17.792 39.1055 18.224 37.8735 18.224C36.6255 18.224 35.6495 17.792 34.9135 16.928C34.2095 16.128 33.8575 15.104 33.8575 13.872C33.8575 12.624 34.2095 11.6 34.9135 10.784C35.6495 9.92 36.6255 9.504 37.8735 9.504ZM37.8735 10.576C36.9935 10.576 36.3055 10.912 35.8255 11.584C35.3775 12.192 35.1695 12.944 35.1695 13.872C35.1695 14.784 35.3775 15.536 35.8255 16.144C36.3055 16.816 36.9935 17.152 37.8735 17.152C38.7375 17.152 39.4255 16.816 39.9375 16.144C40.3695 15.536 40.5935 14.768 40.5935 13.872C40.5935 12.944 40.3695 12.192 39.9375 11.584C39.4255 10.912 38.7375 10.576 37.8735 10.576Z" fill="white"/>
<rect x="288.855" y="73.5" width="119" height="31" rx="3.5" stroke="white" stroke-opacity="0.5" stroke-linecap="round" stroke-linejoin="round"/>
<path d="M329.331 84.528C328.959 85.032 328.491 85.476 327.927 85.872L327.567 85.392C328.455 84.792 329.067 84.06 329.379 83.196L329.991 83.268C329.895 83.508 329.799 83.736 329.691 83.952H334.071V84.432C333.759 85.056 333.399 85.584 333.003 86.04L332.547 85.68C332.847 85.344 333.123 84.96 333.375 84.528H329.331ZM324.339 83.976H327.243V84.552H324.339V83.976ZM324.075 86.148H327.507V86.712H324.075V86.148ZM330.879 84.816L331.443 84.936C331.395 85.128 331.323 85.32 331.239 85.5C332.127 86.448 333.267 87.012 334.659 87.204L334.395 87.756C333.027 87.54 331.899 86.94 330.987 85.956C330.435 86.796 329.487 87.36 328.155 87.624L327.843 87.144C329.547 86.832 330.567 86.052 330.879 84.816ZM325.563 87.78H333.171V92.376H325.563V87.78ZM332.535 91.824V90.936H326.199V91.824H332.535ZM326.199 90.468H332.535V89.64H326.199V90.468ZM326.199 89.172H332.535V88.296H326.199V89.172ZM330.603 92.604C331.995 92.856 333.315 93.216 334.587 93.696L334.383 94.224C333.111 93.72 331.767 93.336 330.375 93.06L330.603 92.604ZM327.975 92.556L328.299 93C327.399 93.504 326.103 93.9 324.423 94.212L324.123 93.696C325.815 93.408 327.099 93.024 327.975 92.556ZM340.775 88.236H342.311V84.468H340.811V83.844H345.719V87.516C345.719 89.976 345.875 91.704 346.187 92.712C346.331 93.096 346.451 93.3 346.559 93.3C346.631 93.3 346.691 93.168 346.739 92.904C346.799 92.58 346.847 92.04 346.871 91.272L347.375 91.524C347.327 92.628 347.243 93.336 347.111 93.648C346.991 93.9 346.847 94.032 346.703 94.032C346.367 94.02 346.055 93.744 345.791 93.204C345.311 92.148 345.071 90.252 345.071 87.516V84.468H342.935V88.236H344.519V88.848H342.935V94.104H342.311V88.848H340.775V88.236ZM336.479 84.912H340.487V85.524H336.479V84.912ZM336.947 86.64H340.007V87.216H336.947V86.64ZM336.947 88.284H340.007V88.884H336.947V88.284ZM340.103 90.06V93.984H339.491V93.372H337.475V94.068H336.863V90.06H340.103ZM337.475 92.76H339.491V90.66H337.475V92.76ZM338.387 83.196C338.615 83.7 338.783 84.18 338.903 84.612L338.351 84.816C338.183 84.312 337.991 83.832 337.763 83.364L338.387 83.196ZM358.135 94.056H356.491L356.347 93.444C356.899 93.468 357.415 93.48 357.907 93.48C358.363 93.48 358.591 93.24 358.591 92.76V83.316H359.239V92.928C359.239 93.672 358.867 94.056 358.135 94.056ZM356.023 84.228H356.671V91.836H356.023V84.228ZM349.243 83.808H355.015V84.456H351.835C351.751 85.104 351.619 85.716 351.451 86.292H354.379V86.868C353.743 90.264 352.123 92.664 349.507 94.056L349.171 93.48C350.563 92.736 351.667 91.704 352.459 90.384C351.835 89.832 351.079 89.328 350.215 88.86C349.927 89.244 349.615 89.604 349.279 89.928L348.967 89.316C350.203 88.14 350.947 86.52 351.199 84.456H349.243V83.808ZM350.551 88.356C351.391 88.812 352.135 89.304 352.759 89.832C353.203 88.944 353.539 87.972 353.767 86.916H351.247C351.055 87.432 350.815 87.912 350.551 88.356ZM362.103 84.324H366.531V83.244H367.179V84.324H371.607V84.948H367.179V86.256H370.899V86.88H367.179V88.212H371.907V88.824H366.399C365.967 89.448 365.391 90.012 364.695 90.528V93.324C365.643 93.048 366.591 92.712 367.539 92.304L367.671 92.904C366.483 93.396 365.283 93.804 364.059 94.116L363.843 93.564C363.987 93.504 364.059 93.42 364.059 93.3V90.96C363.375 91.38 362.595 91.764 361.719 92.112L361.371 91.548C363.363 90.84 364.815 89.928 365.703 88.824H361.803V88.212H366.531V86.88H362.811V86.256H366.531V84.948H362.103V84.324ZM370.911 89.568L371.367 90.012C370.707 90.684 369.963 91.2 369.123 91.56C369.939 92.46 370.983 93.132 372.255 93.564L371.883 94.14C369.699 93.324 368.163 91.848 367.275 89.7L367.779 89.424C368.043 90.048 368.367 90.612 368.751 91.116C369.519 90.804 370.239 90.288 370.911 89.568Z" fill="white"/>
<rect x="288.855" y="121.5" width="119" height="31" rx="3.5" stroke="white" stroke-opacity="0.5" stroke-linecap="round" stroke-linejoin="round"/>
<path d="M309.043 132.504H311.875C311.683 132.048 311.467 131.64 311.239 131.28L311.911 131.16C312.127 131.556 312.331 132 312.523 132.504H315.199C315.439 132.048 315.631 131.592 315.751 131.112L316.423 131.208C316.303 131.676 316.111 132.108 315.871 132.504H318.667V133.104H314.179V134.436H318.055V135.012H314.179V136.356H319.075V136.98H308.635V136.356H313.531V135.012H309.703V134.436H313.531V133.104H309.043V132.504ZM313.663 137.388L314.311 137.448C314.263 137.808 314.179 138.132 314.083 138.444H318.799V139.068H313.843C313.579 139.644 313.207 140.148 312.739 140.568C311.959 141.276 310.591 141.828 308.635 142.236L308.371 141.612C310.147 141.276 311.419 140.784 312.211 140.136C312.571 139.824 312.871 139.476 313.111 139.068H308.923V138.444H313.399C313.519 138.108 313.603 137.76 313.663 137.388ZM314.491 139.632C316.267 140.196 317.887 140.88 319.351 141.684L318.979 142.26C317.395 141.372 315.787 140.664 314.131 140.16L314.491 139.632ZM326.139 131.28H326.595C328.083 132.72 329.799 133.86 331.743 134.7L331.419 135.276C329.451 134.4 327.759 133.26 326.367 131.868C325.083 133.212 323.391 134.388 321.279 135.372L320.967 134.796C323.043 133.86 324.771 132.684 326.139 131.28ZM324.015 137.064V138.228H328.815V137.064H324.015ZM328.815 136.488V135.336H324.015V136.488H328.815ZM330.327 138.684L330.879 138.96C330.375 139.548 329.823 140.076 329.235 140.544C329.979 140.916 330.663 141.312 331.287 141.72L330.879 142.212C329.631 141.348 328.047 140.556 326.127 139.812L326.511 139.356C327.279 139.644 328.011 139.956 328.695 140.28C329.307 139.776 329.847 139.248 330.327 138.684ZM324.819 133.296H327.939V133.848H324.819V133.296ZM323.235 142.164L323.055 141.648C323.271 141.588 323.379 141.42 323.379 141.156V134.748H329.451V138.816H324.015V141.456C325.011 141.264 325.959 141.024 326.871 140.748L326.991 141.324C325.983 141.636 324.735 141.924 323.235 142.164ZM337.679 131.16H338.339L334.031 142.2H333.371L337.679 131.16ZM341.671 137.016H349.123V139.332H345.811V141.252C345.811 141.828 345.535 142.128 344.983 142.128H343.579L343.435 141.528C343.903 141.552 344.347 141.576 344.767 141.576C345.031 141.576 345.163 141.408 345.163 141.096V139.332H341.671V137.016ZM348.475 138.804V137.556H342.307V138.804H348.475ZM341.491 131.616H349.231V134.88H345.451C345.571 135.132 345.679 135.408 345.799 135.696H350.599V136.26H340.111V135.696H345.103C344.983 135.396 344.851 135.12 344.707 134.88H341.491V131.616ZM348.583 134.34V133.476H342.139V134.34H348.583ZM342.139 132.984H348.583V132.144H342.139V132.984ZM347.443 139.884C348.583 140.232 349.687 140.736 350.755 141.408L350.515 141.996C349.447 141.312 348.331 140.784 347.167 140.4L347.443 139.884ZM342.991 139.836L343.411 140.268C342.607 140.976 341.575 141.552 340.315 142.008L339.955 141.468C341.275 141.024 342.295 140.484 342.991 139.836ZM352.815 136.86H354.843V135.828H352.707V131.724H357.555V135.828H355.419V136.86H357.435V137.412H355.419V138.54H357.723V139.128H352.515V138.54H354.843V137.412H352.815V136.86ZM352.899 139.74L353.427 139.8C353.355 140.688 353.199 141.468 352.947 142.164L352.395 141.996C352.659 141.336 352.827 140.58 352.899 139.74ZM354.639 139.812C354.711 140.352 354.759 141.084 354.795 142.008L354.243 142.08C354.219 141.132 354.183 140.4 354.123 139.872L354.639 139.812ZM357.123 139.632C357.363 140.34 357.555 140.988 357.699 141.588L357.195 141.768C357.039 141.084 356.847 140.424 356.631 139.776L357.123 139.632ZM355.887 139.764C356.055 140.4 356.187 141.084 356.307 141.828L355.767 141.948C355.659 141.156 355.539 140.472 355.395 139.872L355.887 139.764ZM357.003 135.3V132.24H355.371V135.3H357.003ZM354.879 135.3V132.24H353.247V135.3H354.879ZM356.163 132.708L356.571 132.816C356.487 133.512 356.331 134.172 356.115 134.808L355.719 134.664C355.923 134.052 356.067 133.404 356.163 132.708ZM354.015 132.816C354.207 133.356 354.363 133.98 354.507 134.688L354.111 134.784C353.991 134.148 353.823 133.536 353.631 132.948L354.015 132.816ZM360.039 131.28H360.687V133.56H363.315V134.172H360.687V136.524H362.775V142.164H362.163V141.492H358.935V142.164H358.323V136.524H360.039V131.28ZM358.935 140.892H362.163V137.124H358.935V140.892ZM368.315 131.748L368.927 131.988C368.051 133.92 366.899 135.396 365.459 136.404L364.955 135.96C366.431 134.916 367.547 133.512 368.315 131.748ZM370.235 131.628H372.443C373.079 133.38 374.195 134.796 375.803 135.864L375.383 136.44C373.871 135.396 372.743 134.004 371.999 132.264H370.235V131.628ZM369.287 136.704H366.695V136.068H373.751C373.715 137.532 373.643 138.72 373.535 139.632C373.415 140.52 373.223 141.156 372.959 141.516C372.695 141.864 372.263 142.056 371.663 142.08H369.467L369.299 141.444C370.019 141.456 370.691 141.468 371.339 141.468C372.011 141.468 372.455 141.168 372.671 140.592C372.887 139.98 373.031 138.684 373.103 136.704H369.935C369.647 138.06 369.227 139.128 368.699 139.92C368.075 140.76 367.151 141.528 365.903 142.2L365.495 141.672C366.647 141.06 367.499 140.388 368.075 139.656C368.627 138.912 369.023 137.928 369.287 136.704ZM377.659 138.504H379.759C379.783 138.348 379.795 138.192 379.795 138.048V136.992H380.407V138.048C380.407 138.204 380.395 138.36 380.383 138.504H382.723V139.08H380.299L380.227 139.404C381.163 140.124 381.943 140.832 382.579 141.552L382.147 141.984C381.607 141.324 380.911 140.64 380.047 139.932C379.651 140.904 378.931 141.672 377.899 142.236L377.419 141.804C378.643 141.18 379.399 140.28 379.675 139.08H377.659V138.504ZM377.755 133.644H379.951V131.292H380.575V133.644H382.699V134.208H380.575V136.608H379.951V134.208H377.755V133.644ZM381.979 131.436L382.459 131.664C382.231 132.216 381.955 132.708 381.643 133.116L381.211 132.804C381.511 132.42 381.763 131.964 381.979 131.436ZM378.499 131.544C378.811 132 379.075 132.48 379.303 132.996L378.823 133.212C378.559 132.648 378.283 132.144 377.983 131.712L378.499 131.544ZM381.463 136.872C381.883 137.304 382.207 137.688 382.435 138.024L381.991 138.336C381.751 137.976 381.439 137.568 381.043 137.136L381.463 136.872ZM379.015 134.784L379.411 135.132C378.967 135.816 378.427 136.416 377.791 136.932L377.455 136.476C378.067 135.996 378.583 135.432 379.015 134.784ZM381.427 134.724C381.967 135.204 382.459 135.732 382.903 136.296L382.531 136.704C382.063 136.08 381.583 135.552 381.079 135.096L381.427 134.724ZM386.407 139.932C387.175 140.532 387.835 141.132 388.363 141.732L387.931 142.164C387.451 141.576 386.815 140.964 385.999 140.316L386.407 139.932ZM382.963 131.748H388.195V132.336H385.915C385.891 132.744 385.867 133.128 385.819 133.488H387.775V139.74H383.479V133.488H385.183C385.231 133.116 385.267 132.732 385.291 132.336H382.963V131.748ZM387.163 139.164V137.784H384.103V139.164H387.163ZM384.103 137.244H387.163V135.936H384.103V137.244ZM384.103 135.384H387.163V134.052H384.103V135.384ZM384.823 139.92L385.243 140.304C384.691 141.048 384.019 141.696 383.215 142.248L382.843 141.768C383.611 141.24 384.271 140.628 384.823 139.92Z" fill="white"/>
<rect x="288.855" y="169.5" width="119" height="31" rx="3.5" stroke="white" stroke-opacity="0.5" stroke-linecap="round" stroke-linejoin="round"/>
<path d="M324.483 187.74L324.291 187.176C324.435 187.128 324.519 187.044 324.519 186.924V180.324H325.167V186.972C325.839 186.78 326.499 186.552 327.147 186.288V179.28H327.795V190.116H327.147V186.924C326.295 187.236 325.407 187.5 324.483 187.74ZM330.255 181.764C329.823 182.892 329.283 183.828 328.611 184.572L328.203 184.092C329.223 182.868 329.907 181.236 330.267 179.172L330.915 179.292C330.795 179.952 330.639 180.564 330.471 181.128H334.587V181.764H333.531C333.459 183.804 332.955 185.532 332.031 186.972C332.799 188.004 333.735 188.916 334.827 189.708L334.383 190.236C333.291 189.444 332.367 188.544 331.623 187.548C330.831 188.58 329.787 189.444 328.515 190.14L328.143 189.552C329.451 188.88 330.483 188.04 331.239 187.02C330.555 186.036 330.015 184.956 329.619 183.78L330.147 183.48C330.519 184.548 331.011 185.532 331.635 186.432C332.427 185.112 332.859 183.552 332.907 181.764H330.255ZM336.971 181.632H337.547V183.744H338.831V182.136H344.243V181.644H343.715V180.684H342.191V180.096H343.715V179.244H344.327V180.096H347.003V180.684H344.327V181.392H344.819C344.819 181.644 344.819 181.896 344.831 182.136H345.947C345.815 181.776 345.671 181.44 345.515 181.14L346.079 181.044C346.223 181.368 346.355 181.728 346.487 182.136H347.159V182.7H344.843C344.867 184.272 344.963 185.496 345.119 186.384C345.155 186.612 345.203 186.828 345.251 187.044C345.635 186.096 345.887 184.956 346.031 183.624L346.595 183.744C346.403 185.448 346.031 186.84 345.479 187.908C345.563 188.208 345.659 188.472 345.767 188.7C346.007 189.18 346.199 189.432 346.355 189.432C346.523 189.408 346.679 188.82 346.811 187.668L347.303 187.932C347.111 189.396 346.823 190.128 346.463 190.128C346.163 190.128 345.839 189.828 345.479 189.252C345.347 189.024 345.227 188.772 345.131 188.508C344.675 189.18 344.135 189.708 343.511 190.08L343.199 189.588C343.883 189.18 344.447 188.58 344.879 187.8C344.771 187.428 344.675 187.02 344.591 186.588C344.399 185.58 344.291 184.284 344.255 182.7H339.419V186.372C339.395 187.956 339.095 189.228 338.531 190.188L338.063 189.768C338.543 188.952 338.807 187.824 338.831 186.372V186.228H337.691C337.643 187.86 337.343 189 336.791 189.624L336.335 189.276C336.839 188.724 337.115 187.716 337.163 186.228H336.431V185.664H338.831V184.32H336.971V181.632ZM336.719 180.096H339.395V179.244H340.007V180.096H341.519V180.684H340.007V181.644H339.395V180.684H336.719V180.096ZM343.535 187.452H342.407V188.772H343.595V189.312H340.223V183.54H343.595V184.068H342.407V185.292H343.535V187.452ZM341.879 184.068H340.763V185.292H341.879V184.068ZM340.763 185.796V186.948H343.007V185.796H340.763ZM340.763 187.452V188.772H341.879V187.452H340.763ZM357.739 183.972V186.216H351.631V187.188H358.291V190.164H357.643V189.624H351.631V190.152H350.983V183.972H357.739ZM351.631 189.036H357.643V187.728H351.631V189.036ZM351.631 185.676H357.103V184.524H351.631V185.676ZM359.383 182.568V184.632H358.747V183.132H349.963V184.632H349.327V182.568H354.175C354.031 182.244 353.887 181.956 353.743 181.692L354.379 181.572C354.535 181.86 354.679 182.196 354.811 182.568H359.383ZM350.611 180.732C350.311 181.212 349.963 181.668 349.579 182.076L349.027 181.728C349.771 180.96 350.323 180.108 350.671 179.16L351.307 179.292C351.187 179.58 351.067 179.868 350.935 180.144H354.307V180.732H352.135C352.447 181.152 352.687 181.536 352.867 181.896L352.279 182.124C352.039 181.644 351.751 181.188 351.439 180.732H350.611ZM355.795 180.732C355.567 181.164 355.315 181.56 355.027 181.92L354.475 181.56C355.063 180.852 355.495 180.06 355.771 179.172L356.383 179.304C356.287 179.592 356.179 179.88 356.071 180.144H359.659V180.732H357.391C357.679 181.116 357.907 181.464 358.075 181.8L357.487 182.004C357.259 181.572 356.995 181.14 356.683 180.732H355.795ZM365.931 179.748H371.643V185.148H369.111V186.756H371.883V187.368H369.111V189.156H372.339V189.792H365.163V189.156H368.463V187.368H365.691V186.756H368.463V185.148H365.931V179.748ZM371.007 184.56V182.748H369.111V184.56H371.007ZM368.463 184.56V182.748H366.555V184.56H368.463ZM366.555 182.184H368.463V180.336H366.555V182.184ZM369.111 180.336V182.184H371.007V180.336H369.111ZM361.623 183.744H363.039V180.696H361.455V180.072H365.259V180.696H363.687V183.744H365.115V184.38H363.687V187.368C364.191 187.188 364.671 186.996 365.127 186.804V187.44C364.023 187.908 362.823 188.292 361.539 188.604L361.383 187.992C361.959 187.872 362.511 187.74 363.039 187.572V184.38H361.623V183.744Z" fill="white"/>
<rect x="288.855" y="300.5" width="119" height="31" rx="3.5" stroke="white" stroke-opacity="0.5"/>
<path d="M316.171 313.508V314.876H317.599V315.452H315.571V311.156C316.219 311.072 316.831 310.844 317.383 310.472L317.695 310.976C317.275 311.264 316.771 311.468 316.171 311.6V312.956H317.587V313.508H316.171ZM319.735 312.968H321.103V311.42H319.675V310.844H321.703V315.464H319.639V314.888H321.103V313.508H319.735V312.968ZM318.343 310.292H318.955V316.64H321.703V317.192C321.211 318.128 320.431 318.92 319.363 319.568C320.203 319.976 321.199 320.3 322.339 320.54L322.099 321.152C320.755 320.864 319.627 320.456 318.703 319.928C317.683 320.432 316.459 320.852 315.043 321.164L314.719 320.588C316.027 320.324 317.143 319.976 318.079 319.556C317.143 318.92 316.423 318.14 315.943 317.228H315.475V316.64H318.343V310.292ZM316.615 317.228C317.107 318.02 317.815 318.68 318.739 319.232C319.759 318.68 320.515 318.008 320.995 317.228H316.615ZM312.847 321.056H311.707L311.575 320.456C311.935 320.48 312.295 320.504 312.631 320.504C312.919 320.504 313.075 320.336 313.075 320V316.808C312.595 317 312.115 317.168 311.635 317.312L311.491 316.7C312.043 316.544 312.571 316.376 313.075 316.184V313.22H311.683V312.608H313.075V310.292H313.723V312.608H314.935V313.22H313.723V315.92C314.167 315.716 314.599 315.5 315.019 315.272V315.908C314.587 316.136 314.155 316.34 313.723 316.532V320.156C313.723 320.756 313.423 321.056 312.847 321.056ZM329.427 314.252H333.807V316.724H332.031V317.756H334.635V318.356H332.031V320.216C332.031 320.816 331.743 321.128 331.167 321.128H329.535L329.391 320.528C329.943 320.552 330.459 320.576 330.951 320.576C331.239 320.576 331.395 320.396 331.395 320.06V318.356H324.087V317.756H331.395V316.724H329.427V314.252ZM333.207 316.196V314.78H330.027V316.196H333.207ZM324.519 314.3H328.671V314.852H326.847V316.316C327.543 316.22 328.215 316.112 328.851 315.992V316.544C327.603 316.784 326.139 317 324.435 317.204L324.279 316.64C324.951 316.568 325.587 316.484 326.211 316.4V314.852H324.519V314.3ZM332.883 313.628H325.347V313.112H332.271V312.308H324.159V311.828H332.271V311.012H325.335V310.484H332.883V311.768H334.551V312.368H332.883V313.628ZM326.535 318.548C327.423 319.076 328.179 319.604 328.779 320.132L328.347 320.564C327.795 320.06 327.039 319.52 326.103 318.956L326.535 318.548ZM340.895 314.288C341.315 314.576 341.759 314.972 342.239 315.464C342.635 315.884 342.971 316.28 343.235 316.652L342.767 317.06C342.503 316.676 342.167 316.268 341.771 315.86C341.315 315.38 340.883 314.984 340.475 314.684L340.895 314.288ZM350.551 311.948C350.251 312.452 349.915 312.908 349.543 313.328L348.991 312.968C349.759 312.14 350.323 311.204 350.683 310.148L351.319 310.28C351.175 310.664 351.031 311.012 350.875 311.348H354.259V311.948H352.255C352.687 312.392 353.023 312.8 353.263 313.184L352.687 313.4C352.375 312.896 351.991 312.416 351.547 311.948H350.551ZM355.699 311.9C355.447 312.392 355.159 312.848 354.835 313.256L354.271 312.896C354.931 312.104 355.411 311.192 355.723 310.184L356.347 310.316C356.239 310.652 356.119 310.988 355.987 311.3H359.599V311.9H357.295C357.655 312.368 357.931 312.8 358.147 313.208L357.583 313.412C357.307 312.884 356.983 312.38 356.611 311.9H355.699ZM350.263 318.224V319.82H352.951V318.224H350.263ZM350.263 320.396V321.128H349.639V313.976H350.767C350.899 313.64 350.995 313.292 351.067 312.932L351.727 313.028C351.655 313.364 351.547 313.688 351.415 313.976H353.275V316.436H350.263V317.66H353.575V320.984H352.951V320.396H350.263ZM350.263 315.86H352.663V314.552H350.263V315.86ZM356.491 314.372H354.043V313.772H359.527V314.372H357.115V315.668H359.203V319.4C359.203 320 358.939 320.312 358.423 320.312H357.631L357.463 319.7L358.219 319.724C358.471 319.724 358.603 319.568 358.603 319.268V316.244H357.115V321.14H356.491V316.244H355.015V320.348H354.415V315.668H356.491V314.372ZM366.807 314.48H367.383V315.356H369.567V314.48H370.155V315.356H371.775V315.92H370.155V317.192H372.135V317.768H364.827V317.192H366.807V315.92H365.139V315.356H366.807V314.48ZM367.383 317.192H369.567V315.92H367.383V317.192ZM369.411 318.008C370.323 318.392 371.151 318.86 371.895 319.412L371.571 319.892C370.779 319.28 369.951 318.8 369.111 318.452L369.411 318.008ZM367.395 318.008L367.803 318.38C367.155 318.92 366.363 319.4 365.427 319.82L365.079 319.364C365.991 318.98 366.771 318.524 367.395 318.008ZM362.247 310.448C363.003 310.988 363.639 311.528 364.143 312.056L363.711 312.488C363.243 311.984 362.607 311.432 361.815 310.856L362.247 310.448ZM361.563 313.316H364.143V313.832C363.711 314.576 363.207 315.308 362.631 316.028H364.275V316.46C364.107 317.468 363.891 318.32 363.627 319.016C363.747 319.064 363.867 319.148 363.987 319.268C364.347 319.64 364.743 319.928 365.175 320.12C365.583 320.288 366.135 320.372 366.855 320.384C367.503 320.384 368.259 320.396 369.099 320.396C369.915 320.396 370.995 320.372 372.315 320.348L372.171 320.972H369.183C368.235 320.972 367.443 320.96 366.795 320.948C365.979 320.924 365.343 320.816 364.899 320.612C364.395 320.396 363.951 320.072 363.555 319.64C363.459 319.556 363.351 319.52 363.255 319.52C362.919 319.52 362.463 320.036 361.899 321.068L361.431 320.66C361.995 319.604 362.535 319.028 363.039 318.92C363.303 318.26 363.507 317.48 363.675 316.58H361.863V316.088C362.487 315.368 363.015 314.636 363.447 313.916H361.563V313.316ZM371.151 311.12H369.375V312.128H371.151V311.12ZM369.375 312.596V313.328C369.375 313.544 369.507 313.664 369.771 313.664H371.943V314.168H369.495C369.039 314.168 368.811 313.964 368.811 313.568V310.64H371.703V312.596H369.375ZM365.223 314.396L365.019 313.976C365.163 313.904 365.235 313.808 365.235 313.664V310.64H368.091V312.596H365.799V313.82C366.591 313.724 367.371 313.616 368.127 313.496L368.271 313.976C367.371 314.132 366.351 314.276 365.223 314.396ZM365.799 312.128H367.527V311.132H365.799V312.128ZM375.959 314.852V321.116H375.347V314.948C375.023 316.112 374.603 317.168 374.087 318.104L373.823 317.456C374.543 316.232 375.047 314.828 375.335 313.268H374.099V312.656H375.347V310.244H375.959V312.656H377.051V313.268H375.959V314.144C376.427 314.816 376.907 315.572 377.387 316.424L377.039 316.94C376.619 316.076 376.259 315.38 375.959 314.852ZM378.191 312.584V313.532H379.835V312.584H378.191ZM379.835 312.128V311.168H378.191V312.128H379.835ZM382.007 312.584V313.532H383.759V312.584H382.007ZM383.759 312.128V311.18H382.007V312.128H383.759ZM383.759 314.024H381.443V310.676H384.347V320.324C384.347 320.84 384.095 321.104 383.591 321.104C383.183 321.104 382.763 321.092 382.355 321.092L382.211 320.552C382.619 320.564 383.003 320.576 383.363 320.576C383.627 320.576 383.759 320.42 383.759 320.132V314.024ZM378.743 314.912H380.675V314.228H381.227V314.912H383.159V315.392H381.227V316.088H382.967V318.512H381.227V318.716C381.827 319.04 382.427 319.412 383.039 319.832L382.739 320.276C382.139 319.796 381.635 319.412 381.227 319.148V321.032H380.675V318.656C380.291 319.436 379.691 320.084 378.863 320.588L378.563 320.12C379.415 319.688 380.027 319.16 380.411 318.512H378.959V316.088H380.675V315.392H378.743V314.912ZM382.547 318.116V316.496H381.167V318.116H382.547ZM380.735 318.116V316.496H379.367V318.116H380.735ZM381.767 316.844L382.055 316.892C382.007 317.24 381.923 317.552 381.803 317.816L381.515 317.744C381.623 317.504 381.707 317.204 381.767 316.844ZM380.063 316.856C380.195 317.12 380.315 317.42 380.423 317.732L380.147 317.852C380.051 317.504 379.931 317.204 379.787 316.94L380.063 316.856ZM380.399 310.676V314.024H378.191V321.128H377.603V310.676H380.399Z" fill="white"/>
<rect x="288.855" y="348.5" width="119" height="31" rx="3.5" stroke="white" stroke-opacity="0.5"/>
<path d="M331.155 358.232H331.779V361.148L334.323 360.392C334.287 361.82 334.119 363.344 333.819 364.964L333.207 364.772C333.435 363.62 333.603 362.42 333.699 361.196L331.779 361.772V366.584H331.155V361.964L329.403 362.504V367.688C329.403 368.12 329.595 368.348 329.979 368.348H333.159C333.459 368.348 333.675 368.264 333.795 368.096C333.951 367.868 334.059 367.22 334.119 366.152L334.731 366.344C334.659 367.568 334.503 368.324 334.263 368.612C334.047 368.84 333.723 368.96 333.291 368.96H329.787C329.103 368.96 328.767 368.576 328.767 367.82V362.696L327.819 362.984V362.336L328.767 362.06V359.444H329.403V361.868L331.155 361.34V358.232ZM324.015 361.556H325.515V358.268H326.163V361.556H327.579V362.192H326.163V366.404C326.739 366.2 327.303 365.972 327.855 365.72V366.38C326.679 366.908 325.395 367.352 324.027 367.688L323.859 367.04C324.435 366.92 324.987 366.776 325.515 366.62V362.192H324.015V361.556ZM339.431 360.08H344.315V361.904H342.107L341.903 362.552H345.491V363.032H338.255V362.552H341.303L341.507 361.904H339.431V360.08ZM343.751 361.484V360.512H339.995V361.484H343.751ZM338.879 363.704H344.855V367.4H338.879V363.704ZM344.303 366.956V364.124H339.443V366.956H344.303ZM340.403 364.748H343.343V366.344H340.403V364.748ZM342.851 365.984V365.096H340.895V365.984H342.851ZM346.703 358.76V369.176H346.091V368.684H337.643V369.212H337.031V358.76H346.703ZM337.643 368.144H346.091V359.336H337.643V368.144ZM353.551 364.46H352.519V363.956H355.219V364.46H354.139V365.396H356.035V365.924H354.139V368.216C354.799 368.156 355.447 368.084 356.071 368.012V368.552C354.667 368.72 353.155 368.876 351.523 368.996L351.391 368.444C352.123 368.396 352.843 368.336 353.551 368.276V365.924H351.631V365.396H353.551V364.46ZM355.207 366.284L355.687 366.416C355.555 366.896 355.399 367.328 355.219 367.712L354.739 367.532C354.907 367.208 355.063 366.788 355.207 366.284ZM353.143 359.84C353.383 360.608 353.563 361.304 353.695 361.94L353.263 362.108C353.239 361.976 353.203 361.856 353.179 361.76C352.711 361.976 352.147 362.192 351.475 362.384L351.295 361.94C351.415 361.844 351.487 361.712 351.487 361.568V358.796C352.207 358.7 352.795 358.52 353.275 358.244L353.539 358.676C353.131 358.94 352.615 359.132 352.015 359.228V361.724C352.459 361.568 352.807 361.424 353.059 361.304C352.939 360.848 352.819 360.392 352.687 359.96L353.143 359.84ZM352.375 366.32C352.591 366.74 352.783 367.22 352.951 367.772L352.459 367.904C352.315 367.4 352.123 366.932 351.907 366.476L352.375 366.32ZM354.427 359.276H353.803V358.796H356.299C356.299 360.404 356.227 361.376 356.083 361.736C355.927 362.072 355.663 362.24 355.291 362.264H354.763L354.631 361.772H355.159C355.411 361.748 355.579 361.592 355.651 361.304C355.711 361.016 355.747 360.332 355.759 359.276H354.895C354.871 359.972 354.799 360.488 354.691 360.824C354.559 361.22 354.343 361.568 354.043 361.856L353.743 361.472C353.983 361.232 354.151 360.944 354.259 360.62C354.355 360.32 354.403 359.876 354.427 359.276ZM353.635 362.24H353.995C354.715 362.708 355.483 363.284 356.299 363.98L355.963 364.424C355.075 363.656 354.367 363.092 353.839 362.732C353.287 363.356 352.507 363.992 351.499 364.628L351.175 364.172C352.159 363.572 352.987 362.936 353.635 362.24ZM349.339 358.508C350.011 359.036 350.563 359.564 351.019 360.092L350.611 360.5C350.191 359.996 349.627 359.468 348.931 358.916L349.339 358.508ZM349.375 361.592C350.071 362.168 350.659 362.732 351.139 363.308L350.719 363.728C350.287 363.176 349.699 362.6 348.967 361.988L349.375 361.592ZM350.479 364.688L351.007 364.904C350.587 366.344 350.131 367.712 349.639 368.984L349.075 368.744C349.615 367.424 350.083 366.068 350.479 364.688ZM358.495 369.104H357.139L357.007 368.504C357.439 368.528 357.871 368.552 358.279 368.552C358.567 368.552 358.711 368.384 358.711 368.048V358.28H359.299V368.204C359.299 368.804 359.023 369.104 358.495 369.104ZM357.055 359.432H357.607V366.884H357.055V359.432ZM362.739 362.312H364.215V361.424H362.739V362.312ZM364.743 361.424V362.312H366.507V362.78H362.163V358.46H366.351V358.928H364.743V359.78H366.123V361.424H364.743ZM362.739 360.992H365.607V360.212H362.739V360.992ZM362.739 359.78H364.215V358.928H362.739V359.78ZM367.875 359.3C367.563 359.78 367.179 360.188 366.699 360.524L366.351 360.092C367.059 359.612 367.539 358.964 367.791 358.172L368.331 358.268C368.271 358.46 368.199 358.652 368.127 358.82H371.835V359.3H367.875ZM367.047 360.968H371.787V362.78H367.047V360.968ZM371.295 362.336V361.388H370.299V362.336H371.295ZM369.867 362.336V361.388H368.991V362.336H369.867ZM368.559 362.336V361.388H367.551V362.336H368.559ZM363.063 363.38H370.659V367.28H368.535V368.204C368.535 368.396 368.643 368.492 368.859 368.492H370.959C371.175 368.492 371.319 368.444 371.391 368.348C371.511 368.24 371.583 367.904 371.631 367.34L372.195 367.52C372.135 368.216 372.015 368.648 371.823 368.816C371.667 368.936 371.415 368.996 371.067 368.996H368.691C368.163 368.996 367.911 368.768 367.911 368.336V367.28H366.219C366.015 367.772 365.631 368.168 365.067 368.468C364.395 368.804 363.315 369.08 361.815 369.272L361.587 368.732C362.991 368.588 363.999 368.372 364.623 368.108C365.091 367.892 365.427 367.616 365.619 367.28H363.063V363.38ZM370.059 366.812V366.032H363.663V366.812H370.059ZM363.663 365.624H370.059V364.952H363.663V365.624ZM363.663 364.544H370.059V363.8H363.663V364.544ZM367.887 359.948H371.283V360.38H367.887V359.948Z" fill="white"/>
<rect x="288.855" y="396.5" width="119" height="31" rx="3.5" stroke="white" stroke-opacity="0.5"/>
<path d="M320.767 406.892V417.164H320.107V416.336H313.627V417.188H312.967V406.892H320.767ZM313.627 415.7H320.107V413.24H313.627V415.7ZM313.627 412.64H320.107V410.324H313.627V412.64ZM313.627 409.712H320.107V407.516H313.627V409.712ZM331.551 406.196L332.187 406.424C331.911 406.94 331.611 407.396 331.275 407.792H334.491V408.44H324.207V407.792H327.423C327.171 407.252 326.883 406.76 326.571 406.328L327.231 406.208C327.531 406.664 327.819 407.192 328.083 407.792H330.567C330.951 407.3 331.275 406.772 331.551 406.196ZM325.551 412.34V413.336C325.551 413.552 325.539 413.756 325.527 413.948H328.479V412.34H325.551ZM328.479 411.752V410.156H325.551V411.752H328.479ZM325.467 414.548C325.323 415.604 325.023 416.504 324.555 417.224L324.087 416.792C324.639 415.904 324.927 414.764 324.951 413.372V409.568H329.091V416.168C329.091 416.768 328.767 417.08 328.119 417.08H327.015L326.847 416.504C327.243 416.516 327.603 416.528 327.939 416.528C328.299 416.528 328.479 416.336 328.479 415.952V414.548H325.467ZM332.847 417.092H331.263L331.131 416.468C331.659 416.492 332.151 416.516 332.619 416.516C332.955 416.516 333.135 416.336 333.135 415.976V409.172H333.783V416.132C333.783 416.768 333.471 417.092 332.847 417.092ZM330.627 410.048H331.251V415.304H330.627V410.048ZM339.191 406.16L339.791 406.448C339.479 407.384 339.083 408.272 338.615 409.1V417.2H337.967V410.132C337.535 410.744 337.067 411.32 336.539 411.872L336.323 411.188C337.655 409.7 338.615 408.032 339.191 406.16ZM339.851 408.236H343.199C343.007 407.54 342.803 406.916 342.575 406.352L343.259 406.244C343.463 406.82 343.655 407.492 343.835 408.236H347.027V408.848H339.851V408.236ZM339.659 415.904H343.811C344.435 414.272 344.987 412.22 345.455 409.748L346.079 409.904C345.647 412.172 345.119 414.176 344.471 415.904H347.339V416.54H339.659V415.904ZM341.195 409.88C341.675 411.464 342.095 413.264 342.467 415.304L341.867 415.46C341.531 413.588 341.111 411.8 340.595 410.072L341.195 409.88ZM349.219 409.652H353.983L354.055 408.86H350.083V406.712H358.651V408.86H354.715C354.691 409.124 354.655 409.388 354.619 409.652H359.503V410.168H354.547C354.499 410.444 354.439 410.708 354.391 410.96H357.943V416.312H359.707V416.84H349.015V416.312H350.779V410.96H353.755C353.815 410.696 353.863 410.432 353.911 410.168H349.219V409.652ZM351.427 416.312H357.307V415.388H351.427V416.312ZM351.427 414.944H357.307V414.068H351.427V414.944ZM351.427 413.636H357.307V412.748H351.427V413.636ZM351.427 412.316H357.307V411.44H351.427V412.316ZM358.027 408.368V407.228H356.011V408.368H358.027ZM355.423 408.368V407.228H353.311V408.368H355.423ZM352.711 408.368V407.228H350.695V408.368H352.711ZM363.375 409.856H370.359V410.48H367.239V412.82H370.911V413.444H367.239V416.132C368.079 416.264 369.111 416.336 370.335 416.348C370.947 416.348 371.583 416.324 372.243 416.3L372.111 416.936H370.623C368.271 416.936 366.579 416.72 365.571 416.288C364.743 415.892 364.083 415.268 363.591 414.416C363.123 415.508 362.535 416.42 361.827 417.164L361.407 416.648C362.583 415.388 363.375 413.684 363.783 411.548L364.407 411.668C364.251 412.424 364.059 413.12 363.843 413.756C364.419 414.872 365.163 415.568 366.051 415.856C366.219 415.904 366.399 415.952 366.591 416V410.48H363.375V409.856ZM371.679 407.504V409.952H371.031V408.128H362.679V410H362.031V407.504H366.675C366.483 407.024 366.267 406.604 366.051 406.232L366.735 406.112C366.939 406.52 367.143 406.976 367.335 407.504H371.679ZM376.691 406.16L377.291 406.448C376.979 407.384 376.583 408.272 376.115 409.1V417.2H375.467V410.132C375.035 410.744 374.567 411.32 374.039 411.872L373.823 411.188C375.155 409.7 376.115 408.032 376.691 406.16ZM377.351 408.236H380.699C380.507 407.54 380.303 406.916 380.075 406.352L380.759 406.244C380.963 406.82 381.155 407.492 381.335 408.236H384.527V408.848H377.351V408.236ZM377.159 415.904H381.311C381.935 414.272 382.487 412.22 382.955 409.748L383.579 409.904C383.147 412.172 382.619 414.176 381.971 415.904H384.839V416.54H377.159V415.904ZM378.695 409.88C379.175 411.464 379.595 413.264 379.967 415.304L379.367 415.46C379.031 413.588 378.611 411.8 378.095 410.072L378.695 409.88Z" fill="white"/>
<rect x="288.855" y="530.5" width="119" height="31" rx="3.5" stroke="white" stroke-opacity="0.5"/>
<path d="M324.339 541.18H326.535V540.208H327.183V541.18H331.515V540.208H332.163V541.18H334.359V541.744H332.163V545.896H334.551V546.472H331.887C332.487 547.288 333.435 547.936 334.719 548.392L334.455 548.956C332.943 548.32 331.875 547.492 331.263 546.472H327.423C326.811 547.492 325.791 548.332 324.351 549.004L324.027 548.464C325.299 547.936 326.223 547.276 326.799 546.472H324.147V545.896H326.535V541.744H324.339V541.18ZM327.183 545.896H331.515V544.852H327.183V545.896ZM327.183 544.312H331.515V543.316H327.183V544.312ZM327.183 542.788H331.515V541.744H327.183V542.788ZM329.031 546.988H329.679V548.032H332.175V548.62H329.679V550.144H333.855V550.756H324.771V550.144H329.031V548.62H326.511V548.032H329.031V546.988ZM336.743 542.5H341.531V540.256H342.179V542.5H346.955V543.136H342.863C343.691 545.128 345.179 546.904 347.315 548.452L346.883 549.016C344.699 547.276 343.175 545.32 342.335 543.136H342.179V548.008H344.843V548.644H342.179V551.176H341.531V548.644H338.963V548.008H341.531V543.136H341.363C340.475 545.596 338.915 547.6 336.707 549.16L336.335 548.572C338.447 547.168 339.959 545.356 340.847 543.136H336.743V542.5ZM354.331 541.528C353.959 542.032 353.491 542.476 352.927 542.872L352.567 542.392C353.455 541.792 354.067 541.06 354.379 540.196L354.991 540.268C354.895 540.508 354.799 540.736 354.691 540.952H359.071V541.432C358.759 542.056 358.399 542.584 358.003 543.04L357.547 542.68C357.847 542.344 358.123 541.96 358.375 541.528H354.331ZM349.339 540.976H352.243V541.552H349.339V540.976ZM349.075 543.148H352.507V543.712H349.075V543.148ZM355.879 541.816L356.443 541.936C356.395 542.128 356.323 542.32 356.239 542.5C357.127 543.448 358.267 544.012 359.659 544.204L359.395 544.756C358.027 544.54 356.899 543.94 355.987 542.956C355.435 543.796 354.487 544.36 353.155 544.624L352.843 544.144C354.547 543.832 355.567 543.052 355.879 541.816ZM350.563 544.78H358.171V549.376H350.563V544.78ZM357.535 548.824V547.936H351.199V548.824H357.535ZM351.199 547.468H357.535V546.64H351.199V547.468ZM351.199 546.172H357.535V545.296H351.199V546.172ZM355.603 549.604C356.995 549.856 358.315 550.216 359.587 550.696L359.383 551.224C358.111 550.72 356.767 550.336 355.375 550.06L355.603 549.604ZM352.975 549.556L353.299 550C352.399 550.504 351.103 550.9 349.423 551.212L349.123 550.696C350.815 550.408 352.099 550.024 352.975 549.556ZM362.211 541.228C362.463 541.948 362.691 542.776 362.895 543.712L362.379 543.844C362.187 542.992 361.947 542.176 361.659 541.408L362.211 541.228ZM365.415 541.012L365.979 541.084C365.895 542.092 365.715 542.98 365.427 543.76L364.923 543.604C365.187 542.848 365.343 541.984 365.415 541.012ZM361.683 544.528H363.615V540.22H364.263V544.528H366.099V545.164H364.263V551.128H363.615V545.164H361.683V544.528ZM370.359 540.256H370.995V547.192L372.231 547L372.339 547.624L370.995 547.828V551.152H370.359V547.924L366.651 548.5L366.567 547.876L370.359 547.288V540.256ZM367.587 541.204C368.427 541.792 369.123 542.38 369.699 542.968L369.279 543.4C368.751 542.824 368.043 542.224 367.155 541.6L367.587 541.204ZM367.251 544.024C368.091 544.636 368.799 545.248 369.375 545.872L368.943 546.292C368.427 545.704 367.719 545.08 366.831 544.42L367.251 544.024ZM365.391 545.932C365.679 546.76 365.931 547.708 366.159 548.788L365.631 548.92C365.439 547.936 365.211 546.988 364.947 546.088L365.391 545.932ZM362.439 545.98L362.943 546.112C362.679 547.36 362.355 548.452 361.959 549.4L361.455 549.22C361.827 548.368 362.151 547.288 362.439 545.98Z" fill="white"/>
<rect x="288.855" y="578.5" width="119" height="31" rx="3.5" stroke="white" stroke-opacity="0.5"/>
<path d="M331.575 594.988C331.791 595.588 332.067 596.116 332.391 596.572C332.991 596.272 333.567 595.804 334.119 595.18L334.551 595.612C334.023 596.236 333.423 596.704 332.751 597.028C333.327 597.712 334.047 598.228 334.899 598.576L334.551 599.08C332.919 598.408 331.767 597.148 331.083 595.276L331.575 594.988ZM327.255 597.088H326.535L326.403 596.596V599.224H325.815V590.788H324.771V597.124H324.207V590.2H325.815V588.184H326.403V590.2H327.999V596.224C327.999 596.8 327.747 597.088 327.255 597.088ZM326.403 590.788V596.512L327.063 596.536C327.315 596.536 327.447 596.392 327.447 596.104V590.788H326.403ZM334.287 588.664V589.252H329.859V590.416H333.903V590.992H329.859V592.18H333.951V592.756H329.859V593.908H334.743V594.508H329.763V598.372C330.387 598.18 331.023 597.916 331.659 597.568L331.767 598.168C331.011 598.564 330.135 598.888 329.139 599.14L328.887 598.588C329.055 598.54 329.139 598.48 329.139 598.384V594.508H328.311V593.908H329.235V588.664H334.287ZM336.863 588.76H340.187V591.82H336.863V588.76ZM339.575 591.256V589.312H337.475V591.256H339.575ZM336.395 592.756H340.559V593.38H338.123C338.003 593.932 337.871 594.46 337.727 594.94H340.007C339.983 597.172 339.779 598.42 339.395 598.708C339.131 598.936 338.531 599.056 337.595 599.068H337.403L337.211 598.468C337.355 598.468 337.487 598.48 337.607 598.48C338.315 598.48 338.759 598.396 338.939 598.228C339.191 598.036 339.335 597.136 339.371 595.54H336.947C337.175 594.724 337.355 594.004 337.487 593.38H336.395V592.756ZM343.571 588.172H344.219V588.976H346.787V589.54H344.219V590.536H347.015V590.848C346.895 591.448 346.727 592.012 346.499 592.564L345.911 592.396C346.091 592.012 346.235 591.592 346.355 591.124H344.207V592.36L345.695 592.156L345.779 592.72L344.207 592.936V593.692C344.207 593.968 344.351 594.112 344.639 594.112H346.751V594.676H344.495C343.883 594.676 343.583 594.388 343.583 593.812V593.02L342.323 593.2L342.227 592.636L343.583 592.444V591.124H341.747V593.944C341.735 595.984 341.363 597.724 340.643 599.164L340.139 598.72C340.763 597.484 341.099 595.9 341.123 593.98V590.536H343.571V588.172ZM342.959 595.108H343.583C343.547 597.112 343.103 598.48 342.239 599.224L341.735 598.828C342.527 598.18 342.935 596.932 342.959 595.108ZM346.211 598.984H345.683C345.035 598.984 344.723 598.708 344.723 598.156V595.12H345.335V598.06C345.335 598.276 345.443 598.384 345.683 598.396H346.187C346.403 598.384 346.547 598.264 346.595 598.048C346.643 597.784 346.667 597.304 346.667 596.632L347.231 596.848C347.231 597.808 347.159 598.408 347.027 598.636C346.907 598.852 346.631 598.972 346.211 598.984ZM357.739 592.972V595.216H351.631V596.188H358.291V599.164H357.643V598.624H351.631V599.152H350.983V592.972H357.739ZM351.631 598.036H357.643V596.728H351.631V598.036ZM351.631 594.676H357.103V593.524H351.631V594.676ZM359.383 591.568V593.632H358.747V592.132H349.963V593.632H349.327V591.568H354.175C354.031 591.244 353.887 590.956 353.743 590.692L354.379 590.572C354.535 590.86 354.679 591.196 354.811 591.568H359.383ZM350.611 589.732C350.311 590.212 349.963 590.668 349.579 591.076L349.027 590.728C349.771 589.96 350.323 589.108 350.671 588.16L351.307 588.292C351.187 588.58 351.067 588.868 350.935 589.144H354.307V589.732H352.135C352.447 590.152 352.687 590.536 352.867 590.896L352.279 591.124C352.039 590.644 351.751 590.188 351.439 589.732H350.611ZM355.795 589.732C355.567 590.164 355.315 590.56 355.027 590.92L354.475 590.56C355.063 589.852 355.495 589.06 355.771 588.172L356.383 588.304C356.287 588.592 356.179 588.88 356.071 589.144H359.659V589.732H357.391C357.679 590.116 357.907 590.464 358.075 590.8L357.487 591.004C357.259 590.572 356.995 590.14 356.683 589.732H355.795ZM365.931 588.748H371.643V594.148H369.111V595.756H371.883V596.368H369.111V598.156H372.339V598.792H365.163V598.156H368.463V596.368H365.691V595.756H368.463V594.148H365.931V588.748ZM371.007 593.56V591.748H369.111V593.56H371.007ZM368.463 593.56V591.748H366.555V593.56H368.463ZM366.555 591.184H368.463V589.336H366.555V591.184ZM369.111 589.336V591.184H371.007V589.336H369.111ZM361.623 592.744H363.039V589.696H361.455V589.072H365.259V589.696H363.687V592.744H365.115V593.38H363.687V596.368C364.191 596.188 364.671 595.996 365.127 595.804V596.44C364.023 596.908 362.823 597.292 361.539 597.604L361.383 596.992C361.959 596.872 362.511 596.74 363.039 596.572V593.38H361.623V592.744Z" fill="white"/>
<rect x="288.855" y="626.5" width="119" height="31" rx="3.5" stroke="white" stroke-opacity="0.5"/>
<path d="M338.603 641.296H345.155V644.092H338.603V641.296ZM344.495 643.504V641.872H339.263V643.504H344.495ZM339.539 644.464C339.959 644.944 340.331 645.508 340.667 646.168H343.127C343.523 645.616 343.871 645.016 344.159 644.38L344.771 644.608C344.483 645.184 344.171 645.712 343.811 646.168H346.955V646.792H336.731V646.168H340.007C339.719 645.64 339.359 645.148 338.927 644.692L339.539 644.464ZM337.607 637.9C338.279 638.38 338.855 638.848 339.335 639.316C339.983 638.728 340.487 638.068 340.859 637.348H337.679V636.736H341.591V637.228C341.219 638.092 340.703 638.848 340.031 639.52H344.123C343.235 638.656 342.539 637.708 342.047 636.652L342.587 636.34C342.827 636.88 343.127 637.384 343.475 637.864C344.051 637.456 344.555 636.976 344.963 636.448L345.431 636.868C344.999 637.42 344.459 637.9 343.835 638.332C344.147 638.704 344.483 639.052 344.867 639.388C345.491 638.932 346.019 638.416 346.451 637.84L346.919 638.26C346.463 638.836 345.935 639.34 345.335 639.772C345.959 640.276 346.667 640.72 347.459 641.116L347.027 641.596C345.923 641.008 344.975 640.336 344.195 639.592V640.132H339.851V639.7C339.035 640.456 338.039 641.092 336.839 641.596L336.443 641.08C337.379 640.684 338.195 640.228 338.879 639.7C338.411 639.256 337.835 638.8 337.163 638.32L337.607 637.9ZM357.739 640.48V637.12H358.387V641.104H354.691V645.712H358.303V642.364H358.939V647.092H358.303V646.348H350.407V647.092H349.771V642.364H350.407V645.712H354.019V641.104H350.323V637.12H350.971V640.48H354.019V636.208H354.691V640.48H357.739Z" fill="white"/>
<rect x="439.564" y="73" width="110" height="32" rx="4" fill="#2C2C2C"/>
<path d="M469.96 85.704H470.596V87.24H474.676V87.864H470.596V89.796H473.776V94.164H473.128V93.516H467.812V94.164H467.164V89.796H469.96V85.704ZM467.812 92.892H473.128V90.408H467.812V92.892ZM469.816 83.16C470.032 83.544 470.248 83.988 470.44 84.48H474.868V85.104H465.94V87.84C465.892 90.456 465.46 92.544 464.62 94.116L464.128 93.672C464.872 92.28 465.256 90.336 465.292 87.84V84.48H469.78C469.588 84.036 469.372 83.64 469.144 83.28L469.816 83.16ZM482.1 83.148C482.268 83.508 482.412 83.916 482.544 84.36H487.08V86.34H486.432V84.972H477.696V86.34H477.048V84.36H481.908C481.764 83.952 481.608 83.592 481.452 83.268L482.1 83.148ZM478.452 86.304H485.676V86.916H482.916C482.532 87.18 482.148 87.42 481.788 87.636C482.316 88.188 482.712 88.788 482.976 89.436L483.024 89.364C483.036 89.388 483.048 89.4 483.072 89.424C484.128 89.016 485.112 88.38 486.048 87.516L486.492 87.96C485.592 88.812 484.572 89.46 483.444 89.892C484.428 91.044 485.76 92.004 487.428 92.796L487.08 93.384C485.496 92.58 484.224 91.608 483.288 90.456C483.36 90.84 483.408 91.236 483.42 91.644C483.42 92.556 483.288 93.204 483.048 93.564C482.784 93.948 482.148 94.152 481.128 94.152H480.732L480.516 93.588H481.044C481.788 93.576 482.268 93.468 482.46 93.252C482.676 92.976 482.796 92.436 482.796 91.644C482.784 91.344 482.76 91.068 482.712 90.816C481.392 91.908 479.58 92.796 477.3 93.492L476.976 92.928C479.424 92.208 481.284 91.296 482.58 90.18C482.472 89.808 482.328 89.46 482.16 89.136C481.02 90.048 479.448 90.792 477.444 91.368L477.132 90.804C479.184 90.252 480.768 89.532 481.872 88.644C481.692 88.38 481.5 88.128 481.296 87.912C481.152 87.984 481.02 88.044 480.9 88.104C480.036 88.488 478.968 88.872 477.672 89.232L477.324 88.692C478.512 88.416 479.556 88.092 480.456 87.708C481.008 87.468 481.524 87.204 481.992 86.916H478.452V86.304ZM490.112 93.372V94.14H489.512V90.06H492.608V93.984H492.008V93.372H490.112ZM492.008 92.772V90.648H490.112V92.772H492.008ZM489.2 84.912H492.908V85.524H489.2V84.912ZM489.56 86.652H492.56V87.24H489.56V86.652ZM489.56 88.26H492.56V88.86H489.56V88.26ZM496.268 86.04H493.46V85.416H497.216C497.6 84.732 497.936 84 498.224 83.208L498.86 83.424C498.56 84.18 498.224 84.84 497.84 85.416H499.712V86.04H496.916V87.996H499.364V88.62H496.916V90.636H500.024V91.248H496.916V94.212H496.268V91.248H493.172V90.636H496.268V88.62H493.832V87.996H496.268V86.04ZM494.852 83.256C495.224 83.784 495.572 84.372 495.908 84.996L495.38 85.272C495.044 84.612 494.684 84.024 494.3 83.508L494.852 83.256ZM490.976 83.232C491.228 83.736 491.42 84.192 491.552 84.612L491 84.828C490.808 84.336 490.592 83.856 490.34 83.4L490.976 83.232ZM508.684 83.148H509.332V84.048H512.212V84.6H509.332V85.572H511.804V86.112H509.332V87.072H512.548V87.636H505.48V87.072H508.684V86.112H506.176V85.572H508.684V84.6H505.768V84.048H508.684V83.148ZM507.04 90.648V90.84C507.028 91.128 507.004 91.392 506.98 91.656H510.916V90.648H507.04ZM510.916 90.132V89.076H507.04V90.132H510.916ZM506.896 92.172C506.728 92.952 506.428 93.624 505.996 94.176L505.516 93.744C506.092 92.988 506.392 92.04 506.416 90.888V88.536H511.54V93.252C511.54 93.816 511.252 94.104 510.688 94.104H509.26L509.104 93.528C509.608 93.552 510.076 93.564 510.508 93.564C510.772 93.564 510.916 93.384 510.916 93.036V92.172H506.896ZM501.976 85.512L502.492 85.56C502.468 86.76 502.336 87.9 502.096 88.98L501.58 88.848C501.808 87.792 501.94 86.676 501.976 85.512ZM504.64 85.284C504.94 85.932 505.204 86.664 505.444 87.492L504.94 87.624C504.736 86.868 504.484 86.136 504.172 85.44L504.64 85.284ZM503.224 83.268H503.872V94.116H503.224V83.268ZM515.748 85.62H518.868C519 85.212 519.096 84.78 519.156 84.348H514.44V83.748H524.688V84.348H519.804C519.732 84.792 519.648 85.212 519.528 85.62H523.56V92.004H515.748V85.62ZM522.936 91.392V89.988H516.396V91.392H522.936ZM516.396 89.412H522.936V88.092H516.396V89.412ZM516.396 87.516H522.936V86.22H516.396V87.516ZM520.992 92.292C522.432 92.652 523.74 93.096 524.916 93.624L524.556 94.152C523.308 93.552 522.012 93.084 520.692 92.748L520.992 92.292ZM518.076 92.292L518.412 92.736C517.5 93.336 516.192 93.816 514.476 94.176L514.164 93.636C515.88 93.288 517.188 92.844 518.076 92.292Z" fill="white"/>
<rect x="439.564" y="300" width="110" height="32" rx="4" fill="#2C2C2C"/>
<path d="M477.364 310.232H477.988V313.148L480.532 312.392C480.496 313.82 480.328 315.344 480.028 316.964L479.416 316.772C479.644 315.62 479.812 314.42 479.908 313.196L477.988 313.772V318.584H477.364V313.964L475.612 314.504V319.688C475.612 320.12 475.804 320.348 476.188 320.348H479.368C479.668 320.348 479.884 320.264 480.004 320.096C480.16 319.868 480.268 319.22 480.328 318.152L480.94 318.344C480.868 319.568 480.712 320.324 480.472 320.612C480.256 320.84 479.932 320.96 479.5 320.96H475.996C475.312 320.96 474.976 320.576 474.976 319.82V314.696L474.028 314.984V314.336L474.976 314.06V311.444H475.612V313.868L477.364 313.34V310.232ZM470.224 313.556H471.724V310.268H472.372V313.556H473.788V314.192H472.372V318.404C472.948 318.2 473.512 317.972 474.064 317.72V318.38C472.888 318.908 471.604 319.352 470.236 319.688L470.068 319.04C470.644 318.92 471.196 318.776 471.724 318.62V314.192H470.224V313.556ZM486.024 312.332H491.376V315.032H486.024V312.332ZM490.752 314.432V312.92H486.636V314.432H490.752ZM485.124 316.028H488.256V319.208H485.124V316.028ZM487.656 318.644V316.58H485.7V318.644H487.656ZM489.408 316.028H492.528V319.208H489.408V316.028ZM491.94 318.644V316.58H489.996V318.644H491.94ZM482.796 310.784H493.008V311.408H484.08V319.604C484.08 319.964 484.26 320.144 484.62 320.144H493.272V320.768H484.464C483.768 320.768 483.432 320.42 483.432 319.736V311.408H482.796V310.784ZM496.76 311.948C496.46 312.452 496.124 312.908 495.752 313.328L495.2 312.968C495.968 312.14 496.532 311.204 496.892 310.148L497.528 310.28C497.384 310.664 497.24 311.012 497.084 311.348H500.468V311.948H498.464C498.896 312.392 499.232 312.8 499.472 313.184L498.896 313.4C498.584 312.896 498.2 312.416 497.756 311.948H496.76ZM501.908 311.9C501.656 312.392 501.368 312.848 501.044 313.256L500.48 312.896C501.14 312.104 501.62 311.192 501.932 310.184L502.556 310.316C502.448 310.652 502.328 310.988 502.196 311.3H505.808V311.9H503.504C503.864 312.368 504.14 312.8 504.356 313.208L503.792 313.412C503.516 312.884 503.192 312.38 502.82 311.9H501.908ZM496.472 318.224V319.82H499.16V318.224H496.472ZM496.472 320.396V321.128H495.848V313.976H496.976C497.108 313.64 497.204 313.292 497.276 312.932L497.936 313.028C497.864 313.364 497.756 313.688 497.624 313.976H499.484V316.436H496.472V317.66H499.784V320.984H499.16V320.396H496.472ZM496.472 315.86H498.872V314.552H496.472V315.86ZM502.7 314.372H500.252V313.772H505.736V314.372H503.324V315.668H505.412V319.4C505.412 320 505.148 320.312 504.632 320.312H503.84L503.672 319.7L504.428 319.724C504.68 319.724 504.812 319.568 504.812 319.268V316.244H503.324V321.14H502.7V316.244H501.224V320.348H500.624V315.668H502.7V314.372ZM513.016 314.48H513.592V315.356H515.776V314.48H516.364V315.356H517.984V315.92H516.364V317.192H518.344V317.768H511.036V317.192H513.016V315.92H511.348V315.356H513.016V314.48ZM513.592 317.192H515.776V315.92H513.592V317.192ZM515.62 318.008C516.532 318.392 517.36 318.86 518.104 319.412L517.78 319.892C516.988 319.28 516.16 318.8 515.32 318.452L515.62 318.008ZM513.604 318.008L514.012 318.38C513.364 318.92 512.572 319.4 511.636 319.82L511.288 319.364C512.2 318.98 512.98 318.524 513.604 318.008ZM508.456 310.448C509.212 310.988 509.848 311.528 510.352 312.056L509.92 312.488C509.452 311.984 508.816 311.432 508.024 310.856L508.456 310.448ZM507.772 313.316H510.352V313.832C509.92 314.576 509.416 315.308 508.84 316.028H510.484V316.46C510.316 317.468 510.1 318.32 509.836 319.016C509.956 319.064 510.076 319.148 510.196 319.268C510.556 319.64 510.952 319.928 511.384 320.12C511.792 320.288 512.344 320.372 513.064 320.384C513.712 320.384 514.468 320.396 515.308 320.396C516.124 320.396 517.204 320.372 518.524 320.348L518.38 320.972H515.392C514.444 320.972 513.652 320.96 513.004 320.948C512.188 320.924 511.552 320.816 511.108 320.612C510.604 320.396 510.16 320.072 509.764 319.64C509.668 319.556 509.56 319.52 509.464 319.52C509.128 319.52 508.672 320.036 508.108 321.068L507.64 320.66C508.204 319.604 508.744 319.028 509.248 318.92C509.512 318.26 509.716 317.48 509.884 316.58H508.072V316.088C508.696 315.368 509.224 314.636 509.656 313.916H507.772V313.316ZM517.36 311.12H515.584V312.128H517.36V311.12ZM515.584 312.596V313.328C515.584 313.544 515.716 313.664 515.98 313.664H518.152V314.168H515.704C515.248 314.168 515.02 313.964 515.02 313.568V310.64H517.912V312.596H515.584ZM511.432 314.396L511.228 313.976C511.372 313.904 511.444 313.808 511.444 313.664V310.64H514.3V312.596H512.008V313.82C512.8 313.724 513.58 313.616 514.336 313.496L514.48 313.976C513.58 314.132 512.56 314.276 511.432 314.396ZM512.008 312.128H513.736V311.132H512.008V312.128Z" fill="white"/>
<path d="M285.898 87C285.898 88.4728 287.092 89.6667 288.564 89.6667C290.037 89.6667 291.231 88.4728 291.231 87C291.231 85.5272 290.037 84.3333 288.564 84.3333C287.092 84.3333 285.898 85.5272 285.898 87ZM241.564 52.5H255.064V51.5H241.564V52.5ZM264.564 62V77H265.564V62H264.564ZM275.064 87.5H288.564V86.5H275.064V87.5ZM264.564 77C264.564 82.799 269.265 87.5 275.064 87.5V86.5C269.818 86.5 265.564 82.2467 265.564 77H264.564ZM255.064 52.5C260.311 52.5 264.564 56.7533 264.564 62H265.564C265.564 56.201 260.863 51.5 255.064 51.5V52.5Z" fill="#FFA92D"/>
<path d="M436.898 87C436.898 88.4728 438.092 89.6667 439.564 89.6667C441.037 89.6667 442.231 88.4728 442.231 87C442.231 85.5272 441.037 84.3333 439.564 84.3333C438.092 84.3333 436.898 85.5272 436.898 87ZM408.564 87.5H439.564V86.5H408.564V87.5Z" fill="#FFA92D"/>
<path d="M436.898 315C436.898 316.473 438.092 317.667 439.564 317.667C441.037 317.667 442.231 316.473 442.231 315C442.231 313.527 441.037 312.333 439.564 312.333C438.092 312.333 436.898 313.527 436.898 315ZM408.564 315.5H439.564V314.5H408.564V315.5Z" fill="#FFA92D"/>
<path d="M128.898 509C128.898 510.473 130.092 511.667 131.564 511.667C133.037 511.667 134.231 510.473 134.231 509C134.231 507.527 133.037 506.333 131.564 506.333C130.092 506.333 128.898 507.527 128.898 509ZM55.5645 14.5H83.5645V13.5H55.5645V14.5ZM93.0645 24V499H94.0645V24H93.0645ZM103.564 509.5H131.564V508.5H103.564V509.5ZM93.0645 499C93.0645 504.799 97.7655 509.5 103.564 509.5V508.5C98.3177 508.5 94.0645 504.247 94.0645 499H93.0645ZM83.5645 14.5C88.8112 14.5 93.0645 18.7533 93.0645 24H94.0645C94.0645 18.201 89.3634 13.5 83.5645 13.5V14.5Z" fill="#9A9A9A"/>
<path d="M285.898 315C285.898 316.473 287.092 317.667 288.564 317.667C290.037 317.667 291.231 316.473 291.231 315C291.231 313.527 290.037 312.333 288.564 312.333C287.092 312.333 285.898 313.527 285.898 315ZM241.564 278.5H255.064V277.5H241.564V278.5ZM264.564 288V305H265.564V288H264.564ZM275.064 315.5H288.564V314.5H275.064V315.5ZM264.564 305C264.564 310.799 269.265 315.5 275.064 315.5V314.5C269.818 314.5 265.564 310.247 265.564 305H264.564ZM255.064 278.5C260.311 278.5 264.564 282.753 264.564 288H265.564C265.564 282.201 260.863 277.5 255.064 277.5V278.5Z" fill="#FFA92D"/>
<path d="M285.898 545C285.898 546.473 287.092 547.667 288.564 547.667C290.037 547.667 291.231 546.473 291.231 545C291.231 543.527 290.037 542.333 288.564 542.333C287.092 542.333 285.898 543.527 285.898 545ZM241.564 509.5H255.064V508.5H241.564V509.5ZM264.564 519V535H265.564V519H264.564ZM275.064 545.5H288.564V544.5H275.064V545.5ZM264.564 535C264.564 540.799 269.265 545.5 275.064 545.5V544.5C269.818 544.5 265.564 540.247 265.564 535H264.564ZM255.064 509.5C260.311 509.5 264.564 513.753 264.564 519H265.564C265.564 513.201 260.863 508.5 255.064 508.5V509.5Z" fill="#9A9A9A"/>
<path d="M285.898 138C285.898 139.473 287.092 140.667 288.564 140.667C290.037 140.667 291.231 139.473 291.231 138C291.231 136.527 290.037 135.333 288.564 135.333C287.092 135.333 285.898 136.527 285.898 138ZM241.564 52.5H255.064V51.5H241.564V52.5ZM264.564 62V128H265.564V62H264.564ZM275.064 138.5H288.564V137.5H275.064V138.5ZM264.564 128C264.564 133.799 269.265 138.5 275.064 138.5V137.5C269.818 137.5 265.564 133.247 265.564 128H264.564ZM255.064 52.5C260.311 52.5 264.564 56.7533 264.564 62H265.564C265.564 56.201 260.863 51.5 255.064 51.5V52.5Z" fill="#FFA92D"/>
<path d="M285.898 368C285.898 369.473 287.092 370.667 288.564 370.667C290.037 370.667 291.231 369.473 291.231 368C291.231 366.527 290.037 365.333 288.564 365.333C287.092 365.333 285.898 366.527 285.898 368ZM241.564 278.5H255.064V277.5H241.564V278.5ZM264.564 288V358H265.564V288H264.564ZM275.064 368.5H288.564V367.5H275.064V368.5ZM264.564 358C264.564 363.799 269.265 368.5 275.064 368.5V367.5C269.818 367.5 265.564 363.247 265.564 358H264.564ZM255.064 278.5C260.311 278.5 264.564 282.753 264.564 288H265.564C265.564 282.201 260.863 277.5 255.064 277.5V278.5Z" fill="#FFA92D"/>
<path d="M285.898 597C285.898 598.473 287.092 599.667 288.564 599.667C290.037 599.667 291.231 598.473 291.231 597C291.231 595.527 290.037 594.333 288.564 594.333C287.092 594.333 285.898 595.527 285.898 597ZM241.564 509.5H255.064V508.5H241.564V509.5ZM264.564 519V587H265.564V519H264.564ZM275.064 597.5H288.564V596.5H275.064V597.5ZM264.564 587C264.564 592.799 269.265 597.5 275.064 597.5V596.5C269.818 596.5 265.564 592.247 265.564 587H264.564ZM255.064 509.5C260.311 509.5 264.564 513.753 264.564 519H265.564C265.564 513.201 260.863 508.5 255.064 508.5V509.5Z" fill="#9A9A9A"/>
<path d="M285.898 190C285.898 191.473 287.092 192.667 288.564 192.667C290.037 192.667 291.231 191.473 291.231 190C291.231 188.527 290.037 187.333 288.564 187.333C287.092 187.333 285.898 188.527 285.898 190ZM241.564 52.5H255.064V51.5H241.564V52.5ZM264.564 62V180H265.564V62H264.564ZM275.064 190.5H288.564V189.5H275.064V190.5ZM264.564 180C264.564 185.799 269.265 190.5 275.064 190.5V189.5C269.818 189.5 265.564 185.247 265.564 180H264.564ZM255.064 52.5C260.311 52.5 264.564 56.7533 264.564 62H265.564C265.564 56.201 260.863 51.5 255.064 51.5V52.5Z" fill="#FFA92D"/>
<path d="M285.898 421C285.898 422.473 287.092 423.667 288.564 423.667C290.037 423.667 291.231 422.473 291.231 421C291.231 419.527 290.037 418.333 288.564 418.333C287.092 418.333 285.898 419.527 285.898 421ZM241.564 278.5H255.064V277.5H241.564V278.5ZM264.564 288V411H265.564V288H264.564ZM275.064 421.5H288.564V420.5H275.064V421.5ZM264.564 411C264.564 416.799 269.265 421.5 275.064 421.5V420.5C269.818 420.5 265.564 416.247 265.564 411H264.564ZM255.064 278.5C260.311 278.5 264.564 282.753 264.564 288H265.564C265.564 282.201 260.863 277.5 255.064 277.5V278.5Z" fill="#FFA92D"/>
<path d="M285.898 648C285.898 649.473 287.092 650.667 288.564 650.667C290.037 650.667 291.231 649.473 291.231 648C291.231 646.527 290.037 645.333 288.564 645.333C287.092 645.333 285.898 646.527 285.898 648ZM241.564 509.5H255.064V508.5H241.564V509.5ZM264.564 519V638H265.564V519H264.564ZM275.064 648.5H288.564V647.5H275.064V648.5ZM264.564 638C264.564 643.799 269.265 648.5 275.064 648.5V647.5C269.818 647.5 265.564 643.247 265.564 638H264.564ZM255.064 509.5C260.311 509.5 264.564 513.753 264.564 519H265.564C265.564 513.201 260.863 508.5 255.064 508.5V509.5Z" fill="#9A9A9A"/>
<path d="M128.898 52C128.898 53.4728 130.092 54.6667 131.564 54.6667C133.037 54.6667 134.231 53.4728 134.231 52C134.231 50.5272 133.037 49.3333 131.564 49.3333C130.092 49.3333 128.898 50.5272 128.898 52ZM55.5645 14.5H83.5645V13.5H55.5645V14.5ZM93.0645 24V42H94.0645V24H93.0645ZM103.564 52.5H131.564V51.5H103.564V52.5ZM93.0645 42C93.0645 47.799 97.7655 52.5 103.564 52.5V51.5C98.3177 51.5 94.0645 47.2467 94.0645 42H93.0645ZM83.5645 14.5C88.8112 14.5 93.0645 18.7533 93.0645 24H94.0645C94.0645 18.201 89.3634 13.5 83.5645 13.5V14.5Z" fill="#FFA92D"/>
<path d="M128.898 278C128.898 279.473 130.092 280.667 131.564 280.667C133.037 280.667 134.231 279.473 134.231 278C134.231 276.527 133.037 275.333 131.564 275.333C130.092 275.333 128.898 276.527 128.898 278ZM55.5645 14.5H83.5645V13.5H55.5645V14.5ZM93.0645 24V268H94.0645V24H93.0645ZM103.564 278.5H131.564V277.5H103.564V278.5ZM93.0645 268C93.0645 273.799 97.7655 278.5 103.564 278.5V277.5C98.3177 277.5 94.0645 273.247 94.0645 268H93.0645ZM83.5645 14.5C88.8112 14.5 93.0645 18.7533 93.0645 24H94.0645C94.0645 18.201 89.3634 13.5 83.5645 13.5V14.5Z" fill="#FFA92D"/>
</svg>
